<svg height="480pt" viewBox="0 -80 480 480" width="480pt" xmlns="http://www.w3.org/2000/svg"><path d="m24 8h432c8.835938 0 16 7.164062 16 16v272c0 8.835938-7.164062 16-16 16h-432c-8.835938 0-16-7.164062-16-16v-272c0-8.835938 7.164062-16 16-16zm0 0" fill="#4398d1"/><path d="m456 8h-72l-304 304h376c8.835938 0 16-7.164062 16-16v-272c0-8.835938-7.164062-16-16-16zm0 0" fill="#3e8dc2"/><g fill="#0a4a7a"><path d="m56 48h16v224h-16zm0 0"/><path d="m88 48h16v192h-16zm0 0"/><path d="m120 256h16v16h-16zm0 0"/><path d="m152 256h16v16h-16zm0 0"/><path d="m120 48h16v192h-16zm0 0"/><path d="m152 48h16v192h-16zm0 0"/><path d="m184 256h16v16h-16zm0 0"/><path d="m184 48h16v192h-16zm0 0"/><path d="m216 48h16v224h-16zm0 0"/><path d="m248 48h16v224h-16zm0 0"/><path d="m280 256h16v16h-16zm0 0"/><path d="m312 256h16v16h-16zm0 0"/><path d="m280 48h16v192h-16zm0 0"/><path d="m312 48h16v192h-16zm0 0"/><path d="m344 256h16v16h-16zm0 0"/><path d="m344 48h16v192h-16zm0 0"/><path d="m376 48h16v192h-16zm0 0"/><path d="m408 48h16v224h-16zm0 0"/><path d="m88 256h16v16h-16zm0 0"/><path d="m376 256h16v16h-16zm0 0"/></g><path d="m472 0h-464c-4.417969 0-8 3.582031-8 8v304c0 4.417969 3.582031 8 8 8h464c4.417969 0 8-3.582031 8-8v-304c0-4.417969-3.582031-8-8-8zm-8 304h-448v-288h448zm0 0"/><path d="m56 48h16v224h-16zm0 0"/><path d="m88 48h16v192h-16zm0 0"/><path d="m120 256h16v16h-16zm0 0"/><path d="m152 256h16v16h-16zm0 0"/><path d="m120 48h16v192h-16zm0 0"/><path d="m152 48h16v192h-16zm0 0"/><path d="m184 256h16v16h-16zm0 0"/><path d="m184 48h16v192h-16zm0 0"/><path d="m216 48h16v224h-16zm0 0"/><path d="m248 48h16v224h-16zm0 0"/><path d="m280 256h16v16h-16zm0 0"/><path d="m312 256h16v16h-16zm0 0"/><path d="m280 48h16v192h-16zm0 0"/><path d="m312 48h16v192h-16zm0 0"/><path d="m344 256h16v16h-16zm0 0"/><path d="m344 48h16v192h-16zm0 0"/><path d="m376 48h16v192h-16zm0 0"/><path d="m408 48h16v224h-16zm0 0"/><path d="m88 256h16v16h-16zm0 0"/><path d="m376 256h16v16h-16zm0 0"/></svg>