<svg height="480pt" viewBox="-48 0 480 480" width="480pt" xmlns="http://www.w3.org/2000/svg"><path d="m8 408h368v64h-368zm0 0" fill="#22689c"/><path d="m8 104h368v304h-368zm0 0" fill="#4398d1"/><path d="m184 432h16v16h-16zm0 0" fill="#0a4a7a"/><path d="m344 152h-272c-8.835938 0-16 7.164062-16 16v208c0 8.835938 7.164062 16 16 16h272c8.835938 0 16-7.164062 16-16v-208c0-8.835938-7.164062-16-16-16zm0 0" fill="#3e8dc2"/><path d="m208 8h160c4.417969 0 8 3.582031 8 8v48c0 4.417969-3.582031 8-8 8h-160c-4.417969 0-8-3.582031-8-8v-48c0-4.417969 3.582031-8 8-8zm0 0" fill="#87ced9"/><path d="m336 32h16v16h-16zm0 0" fill="#5eb3d1"/><path d="m304 32h16v16h-16zm0 0" fill="#5eb3d1"/><path d="m272 32h16v16h-16zm0 0" fill="#5eb3d1"/><path d="m344 152c0-8.835938-7.164062-16-16-16h-272c-8.835938 0-16 7.164062-16 16v96h304zm0 0" fill="#e3584b"/><path d="m40 248v112c0 8.835938 7.164062 16 16 16h272c8.835938 0 16-7.164062 16-16v-112zm0 0" fill="#c74a44"/><path d="m272 72h32v64h-32zm0 0" fill="#d64740"/><path d="m272 72h32v16h-32zm0 0" fill="#cc3831"/><g fill="#ffc24f"><path d="m72 272h16v16h-16zm0 0"/><path d="m72 304h16v16h-16zm0 0"/><path d="m72 336h16v16h-16zm0 0"/><path d="m104 272h16v16h-16zm0 0"/><path d="m104 304h16v16h-16zm0 0"/><path d="m104 336h16v16h-16zm0 0"/><path d="m136 272h16v16h-16zm0 0"/><path d="m136 304h16v16h-16zm0 0"/><path d="m136 336h16v16h-16zm0 0"/><path d="m168 272h16v16h-16zm0 0"/><path d="m168 304h16v16h-16zm0 0"/><path d="m168 336h16v16h-16zm0 0"/><path d="m200 272h16v16h-16zm0 0"/><path d="m200 304h16v16h-16zm0 0"/><path d="m200 336h16v16h-16zm0 0"/><path d="m264 272h16v16h-16zm0 0"/><path d="m264 304h16v16h-16zm0 0"/><path d="m264 336h16v16h-16zm0 0"/><path d="m296 272h16v16h-16zm0 0"/><path d="m296 304h16v16h-16zm0 0"/><path d="m296 336h16v16h-16zm0 0"/></g><path d="m168 216h-96v-176l16 8 16-8 16 8 16-8 16 8 16-8zm0 0" fill="#d6d9db"/><path d="m72 200v16h96v-112zm0 0" fill="#cccfd1"/><path d="m96 176h48v16h-48zm0 0" fill="#b1b3b5"/><path d="m96 144h48v16h-48zm0 0" fill="#b1b3b5"/><path d="m96 112h48v16h-48zm0 0" fill="#b1b3b5"/><path d="m96 80h48v16h-48zm0 0" fill="#b1b3b5"/><path d="m200 168h112v48h-112zm0 0" fill="#87ced9"/><path d="m200 168h112v16h-112zm0 0" fill="#71c4d1"/><path d="m368 80c8.835938 0 16-7.164062 16-16v-48c0-8.835938-7.164062-16-16-16h-160c-8.835938 0-16 7.164062-16 16v48c0 8.835938 7.164062 16 16 16h56v16h-88v-56c0-2.773438-1.433594-5.347656-3.792969-6.808594-2.355469-1.457031-5.300781-1.589844-7.78125-.351562l-12.425781 6.214844-12.425781-6.214844c-2.25-1.125-4.898438-1.125-7.148438 0l-12.425781 6.214844-12.425781-6.214844c-2.25-1.125-4.898438-1.125-7.148438 0l-12.425781 6.214844-12.425781-6.214844c-2.480469-1.238282-5.425781-1.105469-7.78125.351562-2.359375 1.460938-3.792969 4.035156-3.792969 6.808594v56h-56c-4.417969 0-8 3.582031-8 8v368c0 4.417969 3.582031 8 8 8h368c4.417969 0 8-3.582031 8-8v-368c0-4.417969-3.582031-8-8-8h-64v-16zm-192 32h88v16h-88zm-96-59.054688 4.425781 2.214844c2.25 1.125 4.898438 1.125 7.148438 0l12.425781-6.214844 12.425781 6.214844c2.25 1.125 4.898438 1.125 7.148438 0l12.425781-6.214844 12.425781 6.214844c2.25 1.125 4.898438 1.125 7.148438 0l4.425781-2.214844v155.054688h-80zm-8 171.054688h96c4.417969 0 8-3.582031 8-8v-72h152c4.417969 0 8 3.582031 8 8v88h-288v-88c0-4.417969 3.582031-8 8-8h8v72c0 4.417969 3.582031 8 8 8zm208-96v-48h16v48zm56 128v104c0 4.417969-3.582031 8-8 8h-272c-4.417969 0-8-3.582031-8-8v-104zm32 208h-352v-48h352zm0-352v288h-352v-288h48v16h-8c-13.253906 0-24 10.746094-24 24v208c0 13.253906 10.746094 24 24 24h272c13.253906 0 24-10.746094 24-24v-208c0-13.253906-10.746094-24-24-24h-16v-16zm-64-48h-96v-48h160v48zm0 0"/><path d="m336 32h16v16h-16zm0 0"/><path d="m304 32h16v16h-16zm0 0"/><path d="m272 32h16v16h-16zm0 0"/><path d="m184 432h16v16h-16zm0 0"/><path d="m200 224h112c4.417969 0 8-3.582031 8-8v-48c0-4.417969-3.582031-8-8-8h-112c-4.417969 0-8 3.582031-8 8v48c0 4.417969 3.582031 8 8 8zm8-48h96v32h-96zm0 0"/><path d="m72 272h16v16h-16zm0 0"/><path d="m72 304h16v16h-16zm0 0"/><path d="m72 336h16v16h-16zm0 0"/><path d="m104 272h16v16h-16zm0 0"/><path d="m104 304h16v16h-16zm0 0"/><path d="m104 336h16v16h-16zm0 0"/><path d="m136 272h16v16h-16zm0 0"/><path d="m136 304h16v16h-16zm0 0"/><path d="m136 336h16v16h-16zm0 0"/><path d="m168 272h16v16h-16zm0 0"/><path d="m168 304h16v16h-16zm0 0"/><path d="m168 336h16v16h-16zm0 0"/><path d="m200 272h16v16h-16zm0 0"/><path d="m200 304h16v16h-16zm0 0"/><path d="m200 336h16v16h-16zm0 0"/><path d="m264 272h16v16h-16zm0 0"/><path d="m264 304h16v16h-16zm0 0"/><path d="m264 336h16v16h-16zm0 0"/><path d="m296 272h16v16h-16zm0 0"/><path d="m296 304h16v16h-16zm0 0"/><path d="m296 336h16v16h-16zm0 0"/><path d="m96 176h48v16h-48zm0 0"/><path d="m96 144h48v16h-48zm0 0"/><path d="m96 112h48v16h-48zm0 0"/><path d="m96 80h48v16h-48zm0 0"/></svg>