<svg height="480pt" viewBox="0 0 480 480" width="480pt" xmlns="http://www.w3.org/2000/svg"><path d="m456 296h-208v-184c0-57.4375 46.5625-104 104-104s104 46.5625 104 104zm0 0" fill="#8e4d30"/><path d="m280 264h144c26.507812 0 48 21.492188 48 48v168h-240v-168c0-26.507812 21.492188-48 48-48zm0 0" fill="#4398d1"/><path d="m384 256v-56h-64v56c0 4.417969-3.582031 8-8 8h-16c12.191406 19.136719 33.308594 30.722656 56 30.722656s43.808594-11.585937 56-30.722656h-16c-4.417969 0-8-3.582031-8-8zm0 0" fill="#f8cab9"/><path d="m384 232.425781v-32.425781h-64v32.425781c20.136719 10.101563 43.863281 10.101563 64 0zm0 0" fill="#f6baa4"/><path d="m424 480h-144v-64c-22.09375-26.507812-18.511719-65.910156 8-88h128c26.511719 22.089844 30.09375 61.492188 8 88zm0 0" fill="#8f4b08"/><path d="m288 336c-.957031-.003906-1.910156-.175781-2.808594-.503906-1.988281-.742188-3.601562-2.25-4.484375-4.183594-.878906-1.933594-.953125-4.140625-.203125-6.128906l24-64c1.546875-4.140625 6.15625-6.242188 10.296875-4.695313s6.242188 6.15625 4.695313 10.296875l-24 64c-1.164063 3.132813-4.152344 5.214844-7.496094 5.214844zm0 0" fill="#8f4b08"/><path d="m416 336c-3.335938.003906-6.320312-2.0625-7.496094-5.183594l-24-64c-1.546875-4.140625.554688-8.75 4.695313-10.296875s8.75.554688 10.296875 4.695313l24 64c.75 1.988281.675781 4.195312-.203125 6.128906-.882813 1.933594-2.496094 3.441406-4.484375 4.183594-.902344.320312-1.851563.480468-2.808594.472656zm0 0" fill="#8f4b08"/><path d="m424 480v-57.71875c-45.871094 27.839844-95.894531 50.261719-135.390625 57.71875zm0 0" fill="#804307"/><path d="m352 224c-39.765625 0-72-32.234375-72-72v-40c15.726562-10.484375 28.445312-24.894531 36.894531-41.800781l3.105469-6.199219 4.542969 3.785156c28.410156 23.675782 62.847656 38.984375 99.457031 44.214844v40c0 39.765625-32.234375 72-72 72zm0 0" fill="#f8cab9"/><path d="m316 144c-6.628906 0-12-5.371094-12-12s5.371094-12 12-12 12 5.371094 12 12-5.371094 12-12 12zm0 0" fill="#8f4b08"/><path d="m388 144c-6.628906 0-12-5.371094-12-12s5.371094-12 12-12 12 5.371094 12 12-5.371094 12-12 12zm0 0" fill="#8f4b08"/><path d="m232 472h-224v-112h160l64 72zm0 0" fill="#d45246"/><path d="m104 472h-96v-112h32l64 72zm0 0" fill="#e3584b"/><path d="m64 280h32v80h-32zm0 0" fill="#e3584b"/><path d="m8 200h144v80h-144zm0 0" fill="#4398d1"/><path d="m56 280h96v-80h-16zm0 0" fill="#3e8dc2"/><path d="m112 240h16v16h-16zm0 0" fill="#5eb3d1"/><path d="m80 240h16v16h-16zm0 0" fill="#5eb3d1"/><path d="m48 240h16v16h-16zm0 0" fill="#5eb3d1"/><g fill="#ff7230"><path d="m144 384h16v16h-16zm0 0"/><path d="m112 384h16v16h-16zm0 0"/><path d="m168 416h16v16h-16zm0 0"/><path d="m136 416h16v16h-16zm0 0"/></g><path d="m64 280h32v16h-32zm0 0" fill="#d45246"/><path d="m464 272v-160c0-61.855469-50.144531-112-112-112s-112 50.144531-112 112v160h.886719c-10.800781 10.503906-16.890625 24.933594-16.886719 40v98.960938l-50.015625-56.273438c-1.519531-1.710938-3.695313-2.6875-5.984375-2.6875h-64v-64h48c4.417969 0 8-3.582031 8-8v-80c0-4.417969-3.582031-8-8-8h-144c-4.417969 0-8 3.582031-8 8v80c0 4.417969 3.582031 8 8 8h48v64h-48c-4.417969 0-8 3.582031-8 8v112c0 4.417969 3.582031 8 8 8h232v-168c.027344-22.082031 17.917969-39.972656 40-40h11.769531c.519531.726562 1.132813 1.367188 1.6875 2.070312.855469 1.105469 1.726563 2.1875 2.640625 3.203126.558594.636718 1.070313 1.300781 1.644532 1.917968l-16.574219 44.199219c-27.511719 24.523437-31.507813 66.09375-9.167969 95.410156v61.199219h16v-64c0-1.875-.65625-3.6875-1.855469-5.128906-18.523437-22.285156-16.386719-55.167969 4.863281-74.871094h121.984376c21.25 19.703125 23.386718 52.585938 4.863281 74.871094-1.199219 1.441406-1.855469 3.253906-1.855469 5.128906v64h16v-61.199219c22.320312-29.308593 18.324219-70.855469-9.167969-95.375l-16.574219-44.226562c.574219-.613281 1.085938-1.277344 1.644532-1.917969.914062-1.050781 1.785156-2.128906 2.640625-3.203125.554687-.703125 1.167969-1.34375 1.6875-2.070313h11.769531c22.082031.027344 39.972656 17.917969 40 40v167.992188h16v-168c.003906-15.066406-6.085938-29.496094-16.886719-40zm-448 0v-64h128v64zm72 16v64h-16v-64zm8 176h-80v-96h20.40625l59.59375 67.039062zm128 0h-112v-32c0-1.957031-.714844-3.847656-2.015625-5.3125l-52.167969-58.6875h106.589844l59.59375 67.039062zm75.542969-144 11.152343-29.734375c1.007813.679687 2.097657 1.222656 3.136719 1.847656 1.039063.621094 2.136719 1.320313 3.257813 1.910157 1.597656.847656 3.199218 1.601562 4.878906 2.296874 1.085938.480469 2.144531 1 3.253906 1.433594 1.800782.6875 3.664063 1.238282 5.53125 1.789063 1.015625.304687 2.007813.671875 3.046875.929687 2.175781.542969 4.398438.917969 6.632813 1.261719.796875.121094 1.519531.320313 2.292968.417969 6.15625.789062 12.390626.789062 18.546876 0 .796874-.097656 1.519531-.296875 2.292968-.417969 2.234375-.34375 4.457032-.71875 6.632813-1.261719 1.039062-.257812 2.03125-.625 3.046875-.929687 1.867187-.550781 3.730468-1.101563 5.53125-1.789063 1.109375-.433594 2.167968-.953125 3.253906-1.433594 1.648438-.726562 3.296875-1.449218 4.878906-2.296874 1.121094-.589844 2.179688-1.261719 3.257813-1.910157 1.078125-.648437 2.128906-1.167969 3.136719-1.847656l11.152343 29.734375zm86.449219-49.238281 1.464843 3.917969c-.351562.273437-.664062.585937-1.023437.847656-.363282.265625-.664063.441406-.992188.664062-1.457031 1.023438-2.957031 1.976563-4.503906 2.855469-.570312.320313-1.136719.640625-1.714844.945313-1.539062.804687-3.117187 1.542968-4.726562 2.214843-.40625.175781-.800782.378907-1.222656.535157-1.984376.765624-4.003907 1.421874-6.058594 1.96875-.605469.160156-1.222656.289062-1.832032.425781-1.550781.367187-3.117187.664062-4.703124.902343-.703126.105469-1.40625.207032-2.121094.289063-2.023438.234375-4.0625.359375-6.101563.382813h-.914062c-2.039063-.023438-4.078125-.148438-6.101563-.382813-.714844-.082031-1.417968-.183594-2.121094-.289063-1.601562-.238281-3.152343-.535156-4.703124-.902343-.609376-.136719-1.226563-.265625-1.832032-.425781-2.054687-.546876-4.074218-1.203126-6.058594-1.96875-.414062-.15625-.796874-.359376-1.222656-.535157-1.601562-.671875-3.175781-1.410156-4.726562-2.214843-.578125-.304688-1.144532-.625-1.714844-.945313-1.546875-.878906-3.046875-1.832031-4.503906-2.855469-.328125-.222656-.671875-.429687-.992188-.664062-.320312-.230469-.671875-.574219-1.023437-.847656l1.464843-3.917969c6.015626-2.4375 9.964844-8.269531 9.992188-14.761719v-27.6875c15.621094 4.917969 32.378906 4.917969 48 0v27.6875c.027344 6.492188 3.976562 12.324219 9.992188 14.761719zm-33.992188-54.761719c-35.328125-.039062-63.960938-28.671875-64-64v-35.816406c14.40625-10.40625 26.246094-23.964844 34.625-39.640625 27.089844 21.695312 59.199219 36.234375 93.375 42.28125v33.175781c-.039062 35.328125-28.671875 63.960938-64 64zm96 45.480469c-7.488281-3.597657-15.691406-5.46875-24-5.480469h-32v-34.824219c24.71875-14.269531 39.960938-40.632812 40-69.175781v-40c0-3.984375-2.929688-7.359375-6.871094-7.921875-35.140625-5.003906-68.191406-19.683594-95.464844-42.398437l-4.535156-3.792969c-1.875-1.574219-4.375-2.199219-6.769531-1.6875-2.394531.5-4.425781 2.070312-5.519531 4.257812l-3.097656 6.199219c-7.835938 15.65625-19.617188 29-34.183594 38.71875-2.214844 1.480469-3.546875 3.960938-3.558594 6.625v40c.039062 28.542969 15.28125 54.90625 40 69.175781v34.824219h-32c-8.308594.011719-16.511719 1.882812-24 5.480469v-149.480469c0-53.019531 42.980469-96 96-96s96 42.980469 96 96zm0 0"/><path d="m328 132c0 6.628906-5.371094 12-12 12s-12-5.371094-12-12 5.371094-12 12-12 12 5.371094 12 12zm0 0"/><path d="m400 132c0 6.628906-5.371094 12-12 12s-12-5.371094-12-12 5.371094-12 12-12 12 5.371094 12 12zm0 0"/><path d="m112 240h16v16h-16zm0 0"/><path d="m80 240h16v16h-16zm0 0"/><path d="m48 240h16v16h-16zm0 0"/><path d="m144 384h16v16h-16zm0 0"/><path d="m112 384h16v16h-16zm0 0"/><path d="m168 416h16v16h-16zm0 0"/><path d="m136 416h16v16h-16zm0 0"/></svg>