<svg height="480pt" viewBox="0 0 480 480.02858" width="480pt" xmlns="http://www.w3.org/2000/svg"><path d="m8.015625 312.027344h128v144c0 8.835937-7.164063 16-16 16h-96c-8.839844 0-16-7.164063-16-16zm0 0" fill="#5e5e5e"/><path d="m80.015625 312.027344v144c0 8.835937-7.164063 16-16 16h56c8.835937 0 16-7.164063 16-16v-144zm0 0" fill="#525252"/><path d="m104.015625 280.027344h-64v-256l64 24zm0 0" fill="#c74a44"/><path d="m24.015625 152.027344h96v160h-96zm0 0" fill="#b8bbbd"/><path d="m24.015625 272.027344h96v40h-96zm0 0" fill="#d6d9db"/><path d="m89.613281 23.277344c-14.757812-13.761719-34.597656-19.199219-44.320312-12.167969-9.71875 7.03125-5.628907 23.902344 9.121093 37.671875 14.753907 13.765625 34.601563 19.199219 44.320313 12.167969s5.632813-23.90625-9.121094-37.671875zm0 0" fill="#e3584b"/><path d="m472.015625 224.027344c0 101.621094-82.382813 184-184 184-101.621094 0-184-82.378906-184-184s82.378906-184 184-184c101.617187 0 184 82.378906 184 184zm0 0" fill="#5e5e5e"/><path d="m424.015625 224.027344c0 75.113281-60.890625 136-136 136-75.113281 0-136-60.886719-136-136 0-75.109375 60.886719-136 136-136 75.109375 0 136 60.890625 136 136zm0 0" fill="#71c4d1"/><path d="m400.015625 224.027344c0 61.855468-50.144531 112-112 112s-112-50.144532-112-112c0-61.855469 50.144531-112 112-112s112 50.144531 112 112zm0 0" fill="#87ced9"/><path d="m104.015625 408.027344h368v32c0 17.675781-14.328125 32-32 32h-304c-17.675781 0-32-14.324219-32-32zm0 0" fill="#5e5e5e"/><g fill="#d8eff2"><path d="m230.355469 266.367188 104.003906-104.003907 11.3125 11.316407-104 104zm0 0"/><path d="m210.355469 206.371094 51.996093-51.996094 11.316407 11.3125-52 52zm0 0"/><path d="m302.359375 270.375 52-52 11.3125 11.316406-51.996094 51.996094zm0 0"/></g><path d="m32.015625 336.027344h16v16h-16zm0 0" fill="#b8bbbd"/><path d="m32.015625 368.027344h16v80h-16zm0 0" fill="#b8bbbd"/><path d="m240.015625 408.027344v16c0 8.835937 7.160156 16 16 16h64c8.835937 0 16-7.164063 16-16v-16zm0 0" fill="#525252"/><path d="m24.015625 480.027344h56v-16h-56c-4.417969 0-8-3.582032-8-8v-136h80v-16h-64v-24h56v-16h-56v-104h56v-16h-40v-90.359375c.328125.3125.613281.648437.949219.960937 10.355468 10.332032 24.128906 16.523438 38.730468 17.398438 2.808594.023437 5.609376-.339844 8.320313-1.078125v49.078125h16v-72h-.105469c-1.660156-11.925782-7.660156-22.816406-16.847656-30.597656-17.976562-16.800782-41.398438-22.28125-54.472656-12.800782-5.128906 3.757813-8.265625 9.648438-8.527344 16-.050781 1.132813-.03125 2.269532.054688 3.398438h-.101563v120h-8c-4.417969 0-8 3.582031-8 8v152h-8c-4.417969 0-8 3.582031-8 8v144c0 13.257812 10.742187 24 24 24zm25.964844-462.445313c1.871093-1.140625 4.046875-1.683593 6.234375-1.554687 10.578125.890625 20.488281 5.535156 27.945312 13.097656 6.714844 5.1875 11 12.910156 11.855469 21.351562.042969 1.574219-.6875 3.066407-1.953125 4-5.113281 3.703126-20.59375 1.105469-34.175781-11.550781-6.71875-5.183593-11.011719-12.902343-11.871094-21.34375-.042969-1.578125.695313-3.070312 1.964844-4zm0 0"/><path d="m480.015625 224.027344c.023437-95.921875-70.753906-177.144532-165.777344-190.246094-95.027343-13.101562-185.140625 45.941406-211.074219 138.292969-25.933593 92.351562 20.273438 189.671875 108.226563 227.953125h-107.375c-4.417969 0-8 3.582031-8 8v32c.023437 22.082031 17.917969 39.976562 40 40h304c22.078125-.023438 39.972656-17.917969 40-40v-32c0-4.417969-3.582031-8-8-8h-107.378906c70.003906-30.539063 115.292969-99.621094 115.378906-176zm-16 192v24c0 13.257812-10.746094 24-24 24h-304c-13.257813 0-24-10.742188-24-24v-24h120v8c0 13.257812 10.742187 24 24 24h64c13.253906 0 24-10.742188 24-24v-8zm-216 8v-8h80v8c0 4.417968-3.582031 8-8 8h-64c-4.417969 0-8-3.582032-8-8zm40-24c-97.203125 0-176-78.796875-176-176 0-97.199219 78.796875-176 176-176 97.199219 0 176 78.800781 176 176-.113281 97.15625-78.84375 175.890625-176 176zm0 0"/><path d="m288.015625 80.027344c-79.53125 0-144 64.472656-144 144 0 79.53125 64.46875 144 144 144 79.527344 0 144-64.46875 144-144-.09375-79.488282-64.511719-143.90625-144-144zm0 272c-70.695313 0-128-57.304688-128-128 0-70.691406 57.304687-128 128-128 70.691406 0 128 57.308594 128 128-.085937 70.660156-57.34375 127.917968-128 128zm0 0"/><path d="m230.355469 266.367188 104.003906-104.003907 11.3125 11.316407-104 104zm0 0"/><path d="m210.355469 206.371094 51.996093-51.996094 11.316407 11.3125-52 52zm0 0"/><path d="m302.359375 270.375 52-52 11.3125 11.316406-51.996094 51.996094zm0 0"/><path d="m32.015625 336.027344h16v16h-16zm0 0"/><path d="m32.015625 368.027344h16v80h-16zm0 0"/></svg>