<svg height="480pt" viewBox="0 -52 480.00034 480" width="480pt" xmlns="http://www.w3.org/2000/svg"><path d="m8 112.179688h464v256h-464zm0 0" fill="#87ced9"/><path d="m120 368.179688h352v-256h-96zm0 0" fill="#71c4d1"/><path d="m472 376.179688h-16v-16h8v-8h16v16c0 4.417968-3.582031 8-8 8zm0 0" fill="#22689c"/><path d="m422.769531 376.179688h-33.234375v-16h33.234375zm-66.457031 0h-33.230469v-16h33.230469zm-66.464844 0h-33.230468v-16h33.230468zm-66.464844 0h-33.230468v-16h33.230468zm-66.460937 0h-33.234375v-16h33.234375zm-66.457031 0h-33.234375v-16h33.234375zm0 0" fill="#22689c"/><path d="m24 376.179688h-16c-4.417969 0-8-3.582032-8-8v-16h16v8h8zm0 0" fill="#22689c"/><path d="m16 320.179688h-16v-32h16zm0-64h-16v-32h16zm0-64h-16v-32h16zm0 0" fill="#22689c"/><path d="m16 128.179688h-16v-16c0-4.417969 3.582031-8 8-8h16v16h-8zm0 0" fill="#22689c"/><path d="m422.769531 120.179688h-33.234375v-16h33.234375zm-66.457031 0h-33.230469v-16h33.230469zm-66.464844 0h-33.230468v-16h33.230468zm-66.464844 0h-33.230468v-16h33.230468zm-66.460937 0h-33.234375v-16h33.234375zm-66.457031 0h-33.234375v-16h33.234375zm0 0" fill="#22689c"/><path d="m480 128.179688h-16v-8h-8v-16h16c4.417969 0 8 3.582031 8 8zm0 0" fill="#22689c"/><path d="m480 320.179688h-16v-32h16zm0-64h-16v-32h16zm0-64h-16v-32h16zm0 0" fill="#22689c"/><path d="m297.023438 308.308594 79.972656-144.011719 13.980468 7.761719-79.972656 144.015625zm0 0" fill="#e3584b"/><path d="m304 232.179688c-17.671875 0-32-14.324219-32-32 0-17.671876 14.328125-32 32-32s32 14.328124 32 32c0 17.675781-14.328125 32-32 32zm0-48c-8.835938 0-16 7.164062-16 16 0 8.839843 7.164062 16 16 16s16-7.160157 16-16c0-8.835938-7.164062-16-16-16zm0 0" fill="#e3584b"/><path d="m384 312.179688c-17.671875 0-32-14.324219-32-32 0-17.671876 14.328125-32 32-32s32 14.328124 32 32c0 17.675781-14.328125 32-32 32zm0-48c-8.835938 0-16 7.164062-16 16 0 8.839843 7.164062 16 16 16s16-7.160157 16-16c0-8.835938-7.164062-16-16-16zm0 0" fill="#e3584b"/><path d="m217.257812 13.382812c-24.667968-9.867187-52.75-5.5-73.257812 11.390626l-120 119.40625.097656.097656c-13.527344 10.078125-19.273437 27.5625-14.371094 43.699218 4.902344 16.140626 19.40625 27.46875 36.25 28.324219 16.847657.851563 32.417969-8.957031 38.925782-24.519531 6.507812-15.5625 2.554687-33.535156-9.886719-44.929688zm-161.257812 162.796876c0 4.417968-3.582031 8-8 8s-8-3.582032-8-8c0-4.417969 3.582031-8 8-8s8 3.582031 8 8zm0 0" fill="#c74a44"/><path d="m75.015625 77.507812c12.441406-11.390624 16.394531-29.363281 9.886719-44.925781-6.507813-15.5625-22.078125-25.371093-38.925782-24.519531-16.84375.851562-31.347656 12.183594-36.25 28.320312-4.902343 16.140626.84375 33.621094 14.371094 43.703126l-.097656.09375 120 119.410156c20.507812 16.886718 48.589844 21.253906 73.257812 11.390625zm-27.015625-21.328124c-4.417969 0-8-3.582032-8-8 0-4.417969 3.582031-8 8-8s8 3.582031 8 8c0 4.417968-3.582031 8-8 8zm0 0" fill="#e3584b"/><g fill="#5eb3d1"><path d="m56 248.179688h16v80h-16zm0 0"/><path d="m88 248.179688h16v48h-16zm0 0"/><path d="m120 248.179688h16v48h-16zm0 0"/><path d="m152 248.179688h16v48h-16zm0 0"/><path d="m184 248.179688h16v48h-16zm0 0"/><path d="m216 248.179688h16v80h-16zm0 0"/><path d="m88 312.179688h16v16h-16zm0 0"/><path d="m120 312.179688h16v16h-16zm0 0"/><path d="m152 312.179688h16v16h-16zm0 0"/><path d="m184 312.179688h16v16h-16zm0 0"/></g><path d="m464 360.179688h-8v16h16c4.417969 0 8-3.582032 8-8v-16h-16zm0 0"/><path d="m190.152344 360.179688h33.230468v16h-33.230468zm0 0"/><path d="m123.6875 360.179688h33.234375v16h-33.234375zm0 0"/><path d="m256.617188 360.179688h33.230468v16h-33.230468zm0 0"/><path d="m323.082031 360.179688h33.230469v16h-33.230469zm0 0"/><path d="m389.535156 360.179688h33.234375v16h-33.234375zm0 0"/><path d="m57.230469 360.179688h33.234375v16h-33.234375zm0 0"/><path d="m8 376.179688h16v-16h-8v-8h-16v16c0 4.417968 3.582031 8 8 8zm0 0"/><path d="m0 224.179688h16v32h-16zm0 0"/><path d="m0 288.179688h16v32h-16zm0 0"/><path d="m16 120.179688h8v-16h-16c-4.417969 0-8 3.582031-8 8v16h16zm0 0"/><path d="m256.617188 104.179688h33.230468v16h-33.230468zm0 0"/><path d="m389.535156 104.179688h33.234375v16h-33.234375zm0 0"/><path d="m190.152344 104.179688h33.230468v16h-33.230468zm0 0"/><path d="m323.082031 104.179688h33.230469v16h-33.230469zm0 0"/><path d="m472 104.179688h-16v16h8v8h16v-16c0-4.417969-3.582031-8-8-8zm0 0"/><path d="m464 224.179688h16v32h-16zm0 0"/><path d="m464 160.179688h16v32h-16zm0 0"/><path d="m464 288.179688h16v32h-16zm0 0"/><path d="m297.023438 308.308594 79.972656-144.011719 13.980468 7.761719-79.972656 144.015625zm0 0"/><path d="m272 200.179688c0 17.675781 14.328125 32 32 32s32-14.324219 32-32c0-17.671876-14.328125-32-32-32s-32 14.328124-32 32zm48 0c0 8.839843-7.164062 16-16 16s-16-7.160157-16-16c0-8.835938 7.164062-16 16-16s16 7.164062 16 16zm0 0"/><path d="m384 312.179688c17.671875 0 32-14.324219 32-32 0-17.671876-14.328125-32-32-32s-32 14.328124-32 32c0 17.675781 14.328125 32 32 32zm0-48c8.835938 0 16 7.164062 16 16 0 8.839843-7.164062 16-16 16s-16-7.160157-16-16c0-8.835938 7.164062-16 16-16zm0 0"/><path d="m64 48.179688c0 8.839843-7.164062 16-16 16s-16-7.160157-16-16c0-8.835938 7.164062-16 16-16s16 7.164062 16 16zm0 0"/><path d="m56 248.179688h16v80h-16zm0 0"/><path d="m88 248.179688h16v48h-16zm0 0"/><path d="m120 248.179688h16v48h-16zm0 0"/><path d="m152 248.179688h16v48h-16zm0 0"/><path d="m184 248.179688h16v48h-16zm0 0"/><path d="m216 248.179688h16v80h-16zm0 0"/><path d="m88 312.179688h16v16h-16zm0 0"/><path d="m120 312.179688h16v16h-16zm0 0"/><path d="m152 312.179688h16v16h-16zm0 0"/><path d="m184 312.179688h16v16h-16zm0 0"/><path d="m64 176.179688c0 8.839843-7.164062 16-16 16s-16-7.160157-16-16c0-8.835938 7.164062-16 16-16s16 7.164062 16 16zm0 0"/><path d="m17.710938 213.421875c8.578124 6.980469 19.304687 10.785156 30.363281 10.757813 3.390625 0 6.773437-.347657 10.09375-1.039063 13.46875-2.886719 25.039062-11.4375 31.753906-23.464844 6.714844-12.023437 7.925781-26.363281 3.320313-39.34375l45.671874 45.449219c22.757813 18.753906 53.9375 23.601562 81.316407 12.648438 2.539062-1.015626 4.382812-3.261719 4.890625-5.949219.503906-2.6875-.398438-5.445313-2.394532-7.316407l-90.542968-84.984374h24.738281v-16h-24.738281l90.542968-84.957032c1.996094-1.871094 2.898438-4.632812 2.394532-7.316406-.507813-2.6875-2.351563-4.933594-4.890625-5.949219-27.632813-11.003906-59.074219-5.957031-81.878907 13.144531l-45.085937 44.871094c6.363281-18.035156 1.414063-38.128906-12.597656-51.140625-14.015625-13.015625-34.417969-16.472656-51.933594-8.796875-17.519531 7.679688-28.8046875 25.019532-28.734375 44.144532-.0195312 14.53125 6.613281 28.265624 18 37.289062.113281.136719.230469.257812.351562.382812l26.449219 26.328126-26.449219 26.328124c-.121093.128907-.238281.25-.351562.386719-11.324219 9.03125-17.9414062 22.710938-17.99609375 37.195313-.05859375 14.484375 6.45703175 28.210937 17.70703175 37.332031zm131.378906-182.472656c14.621094-12.046875 33.785156-17.082031 52.4375-13.777344l-89.527344 84.035156-17.214844-16.152343zm-118.394532 44.617187c-.488281-.722656-1.09375-1.355468-1.789062-1.882812-11.339844-8.492188-15.730469-23.4375-10.789062-36.714844 4.941406-13.277344 18.035156-21.714844 32.167968-20.730469 14.128906.984375 25.925782 11.15625 28.980469 24.992188 2.503906 11.136719-1.191406 22.757812-9.671875 30.398437-1.636719 1.507813-2.570312 3.625-2.578125 5.851563-.011719 2.222656.90625 4.347656 2.527344 5.867187l132 123.847656c-18.402344 3.335938-37.347657-1.515624-51.886719-13.277343zm-1.789062 75.109375c.664062-.496093 1.242188-1.101562 1.710938-1.789062l25.550781-25.425781 15.578125 15.488281-2.203125 2.0625c-1.621094 1.523437-2.539063 3.648437-2.527344 5.871093.007813 2.222657.941406 4.34375 2.578125 5.851563 10.742188 9.910156 13.382812 25.851563 6.414062 38.699219s-21.773437 19.324218-35.9375 15.722656c-14.167968-3.601562-24.082031-16.359375-24.070312-30.976562.011719-10.066407 4.800781-19.53125 12.90625-25.503907zm0 0"/></svg>