<svg height="480pt" viewBox="0 -24 480 480" width="480pt" xmlns="http://www.w3.org/2000/svg"><path d="m40 8h320c17.671875 0 32 14.328125 32 32v192c0 17.671875-14.328125 32-32 32h-320c-17.671875 0-32-14.328125-32-32v-192c0-17.671875 14.328125-32 32-32zm0 0" fill="#e3584b"/><path d="m8 64h384v64h-384zm0 0" fill="#8f4b08"/><path d="m120 152c-26.507812 0-48 21.492188-48 48v64h320v-112zm0 0" fill="#d45246"/><path d="m120 168h320c17.671875 0 32 14.328125 32 32v192c0 17.671875-14.328125 32-32 32h-320c-17.671875 0-32-14.328125-32-32v-192c0-17.671875 14.328125-32 32-32zm0 0" fill="#4398d1"/><path d="m440 168-256 256h256c17.671875 0 32-14.328125 32-32v-192c0-17.671875-14.328125-32-32-32zm0 0" fill="#3e8dc2"/><path d="m408 320c-9.222656.023438-17.980469 4.050781-24 11.039062-8.75-10.09375-22.851562-13.691406-35.367188-9.019531-12.515624 4.667969-20.8125 16.621094-20.8125 29.980469s8.296876 25.3125 20.8125 29.980469c12.515626 4.671875 26.617188 1.074219 35.367188-9.019531 9.691406 11.09375 25.714844 14.121093 38.789062 7.328124 13.070313-6.792968 19.800782-21.648437 16.292969-35.953124-3.511719-14.308594-16.351562-24.363282-31.082031-24.335938zm0 0" fill="#e3584b"/><path d="m136 216h48c4.417969 0 8 3.582031 8 8v48c0 4.417969-3.582031 8-8 8h-48c-4.417969 0-8-3.582031-8-8v-48c0-4.417969 3.582031-8 8-8zm0 0" fill="#ffc24f"/><path d="m128 240h24v16h-24zm0 0" fill="#ffa230"/><path d="m168 240h24v16h-24zm0 0" fill="#ffa230"/><g fill="#5eb3d1"><path d="m416 208h16v24h-16zm0 0"/><path d="m384 208h16v24h-16zm0 0"/><path d="m352 208h16v24h-16zm0 0"/><path d="m320 208h16v24h-16zm0 0"/><path d="m128 328h16v16h-16zm0 0"/><path d="m160 328h16v16h-16zm0 0"/><path d="m192 328h16v16h-16zm0 0"/><path d="m224 328h16v16h-16zm0 0"/><path d="m256 328h16v16h-16zm0 0"/><path d="m288 328h16v16h-16zm0 0"/><path d="m128 368h48v16h-48zm0 0"/><path d="m256 368h48v16h-48zm0 0"/></g><path d="m40 272h24v-16h-24c-13.253906 0-24-10.746094-24-24v-96h368v8h16v-104c-.027344-22.082031-17.917969-39.9726562-40-40h-320c-22.082031.0273438-39.9726562 17.917969-40 40v192c.0273438 22.082031 17.917969 39.972656 40 40zm-24-232c0-13.253906 10.746094-24 24-24h320c13.253906 0 24 10.746094 24 24v16h-368zm0 32h368v48h-368zm0 0"/><path d="m440 160h-320c-22.082031.027344-39.972656 17.917969-40 40v192c.027344 22.082031 17.917969 39.972656 40 40h320c22.082031-.027344 39.972656-17.917969 40-40v-192c-.027344-22.082031-17.917969-39.972656-40-40zm24 232c0 13.253906-10.746094 24-24 24h-320c-13.253906 0-24-10.746094-24-24v-192c0-13.253906 10.746094-24 24-24h320c13.253906 0 24 10.746094 24 24zm0 0"/><path d="m408 312c-8.675781.019531-17.105469 2.882812-24 8.152344-16.476562-12.519532-39.777344-10.40625-53.734375 4.871094-13.957031 15.277343-13.957031 38.675781 0 53.953124 13.957031 15.277344 37.257813 17.390626 53.734375 4.871094 13.894531 10.480469 32.972656 10.761719 47.167969.691406 14.199219-10.066406 20.242187-28.164062 14.949219-44.742187-5.296876-16.578125-20.714844-27.824219-38.117188-27.796875zm0 64c-6.917969-.003906-13.488281-3.039062-17.976562-8.304688-1.519532-1.738281-3.714844-2.734374-6.023438-2.734374s-4.503906.996093-6.023438 2.734374c-4.488281 5.265626-11.058593 8.300782-17.976562 8.304688-13.253906 0-24-10.746094-24-24s10.746094-24 24-24c6.917969.003906 13.488281 3.039062 17.976562 8.304688 1.5625 1.660156 3.742188 2.601562 6.023438 2.601562s4.460938-.941406 6.023438-2.601562c4.488281-5.265626 11.058593-8.300782 17.976562-8.304688 13.253906 0 24 10.746094 24 24s-10.746094 24-24 24zm0 0"/><path d="m200 272v-48c0-8.835938-7.164062-16-16-16h-48c-8.835938 0-16 7.164062-16 16v48c0 8.835938 7.164062 16 16 16h48c8.835938 0 16-7.164062 16-16zm-64 0v-16h16v-16h-16v-16h48v16h-16v16h16v16zm0 0"/><path d="m416 208h16v24h-16zm0 0"/><path d="m384 208h16v24h-16zm0 0"/><path d="m352 208h16v24h-16zm0 0"/><path d="m320 208h16v24h-16zm0 0"/><path d="m128 328h16v16h-16zm0 0"/><path d="m160 328h16v16h-16zm0 0"/><path d="m192 328h16v16h-16zm0 0"/><path d="m224 328h16v16h-16zm0 0"/><path d="m256 328h16v16h-16zm0 0"/><path d="m288 328h16v16h-16zm0 0"/><path d="m128 368h48v16h-48zm0 0"/><path d="m256 368h48v16h-48zm0 0"/></svg>