<svg height="480pt" viewBox="0 -24 480.00018 480" width="480pt" xmlns="http://www.w3.org/2000/svg"><path d="m32 327.691406 17.601562 72.414063c3.789063 13.914062 16.417969 23.570312 30.839844 23.585937h319.117188c14.421875-.015625 27.050781-9.671875 30.839844-23.585937l17.601562-72.414063" fill="#d6d9db"/><path d="m32 327.691406 4.855469 20c6.039062 2.636719 12.554687 4 19.144531 4h368c6.589844 0 13.105469-1.363281 19.144531-4l4.855469-20zm0 0" fill="#cccfd1"/><path d="m56 71.691406h368c26.507812 0 48 21.488282 48 48v168c0 26.507813-21.492188 48-48 48h-368c-26.507812 0-48-21.492187-48-48v-168c0-26.511718 21.492188-48 48-48zm0 0" fill="#d6d9db"/><path d="m424 71.691406h-5.535156l-52.863282 114.472656c-19.722656 4.492188-35.632812 19.023438-41.882812 38.261719-10.398438 29.144531 1.480469 60 26.457031 68.847657 24.976563 8.851562 53.601563-7.527344 64-36.671876 7.136719-18.5 4.28125-39.375-7.566406-55.277343l52.65625-114.089844c-9.054687-9.898437-21.851563-15.539063-35.265625-15.542969zm0 0" fill="#c2c5c7"/><path d="m440 199.691406c0-17.671875-14.328125-32-32-32h-16c0-17.671875-14.328125-32-32-32h-32c0-17.671875-14.328125-32-32-32h-112c-17.671875 0-32 14.328125-32 32h-80c-13.253906 0-24 10.746094-24 24h-16c-13.253906 0-24 10.746094-24 24v104c0 26.507813 21.492188 48 48 48h368c26.507812 0 48-21.492187 48-48v-56c0-17.671875-14.328125-32-32-32zm0 0" fill="#ffc24f"/><g fill="#e3584b"><path d="m88 183.691406h16v16h-16zm0 0"/><path d="m136 239.691406h16v16h-16zm0 0"/><path d="m216 135.691406h16v16h-16zm0 0"/><path d="m184 295.691406h16v16h-16zm0 0"/><path d="m272 167.691406h16v16h-16zm0 0"/></g><path d="m450.183594 7.691406c-8.496094 0-16.222656 4.941406-19.785156 12.65625l-76.527344 165.816406c-19.71875 4.492188-35.621094 19.027344-41.871094 38.261719-10.398438 29.144531 1.480469 60 26.457031 68.847657 24.976563 8.851562 53.597657-7.527344 64-36.671876 7.136719-18.5 4.28125-39.375-7.570312-55.277343l75.082031-162.714844c3.117188-6.746094 2.578125-14.613281-1.425781-20.875-4.007813-6.261719-10.925781-10.046875-18.359375-10.042969zm0 0" fill="#e8ebed"/><path d="m432 287.691406c0-17.671875-14.328125-32-32-32h-48c0-17.671875-14.328125-32-32-32h-48v96h160zm0 0" fill="#ffc24f"/><path d="m96 247.691406c0 13.253906-10.746094 24-24 24s-24-10.746094-24-24 10.746094-24 24-24 24 10.746094 24 24zm0 0" fill="#648c15"/><path d="m288 287.691406c0 13.253906-10.746094 24-24 24s-24-10.746094-24-24 10.746094-24 24-24 24 10.746094 24 24zm0 0" fill="#648c15"/><path d="m208 191.691406c0 13.253906-10.746094 24-24 24s-24-10.746094-24-24 10.746094-24 24-24 24 10.746094 24 24zm0 0" fill="#648c15"/><path d="m459.902344 102.035156c2.714844 5.488282 4.117187 11.53125 4.097656 17.65625v80.175782c-4.898438-3.765626-10.605469-6.335938-16.671875-7.503907-2.621094-13.875-12.34375-25.351562-25.601563-30.214843l55.472657-120.183594c6.667969-14.898438.109375-32.382813-14.707031-39.222656-14.816407-6.839844-32.378907-.484376-39.386719 14.253906l-51.90625 112.496094c-3.628907-1.132813-7.398438-1.742188-11.199219-1.800782h-24.800781c-3.824219-18.613281-20.199219-31.980468-39.199219-32h-112c-19 .019532-35.375 13.386719-39.199219 32h-72.800781c-14.585938.019532-27.324219 9.882813-30.992188 24h-9.007812c-5.632812.03125-11.15625 1.570313-16 4.449219v-36.449219c.027344-22.082031 17.917969-39.972656 40-40h320v-16h-320c-30.914062.035156-55.9648438 25.085938-56 56v168c.0195312 18.914063 9.585938 36.539063 25.433594 46.863282l16.414062 67.65625c4.773438 17.386718 20.5625 29.449218 38.59375 29.480468h319.117188c18.105468-.050781 33.933594-12.214844 38.640625-29.695312l16.367187-67.441406c15.847656-10.324219 25.414063-27.949219 25.433594-46.863282v-168c.023438-8.578125-1.945312-17.046875-5.742188-24.734375zm-22.238282-78.34375c2.269532-4.871094 7.148438-7.988281 12.519532-8 4.703125 0 9.078125 2.398438 11.613281 6.359375 2.535156 3.960938 2.875 8.9375.90625 13.207031l-75.09375 162.714844c-1.273437 2.757813-.875 6 1.03125 8.367188 8.859375 11.828125 11.835937 27.054687 8.085937 41.351562h-37.527343c-3.488281-16.792968-17.292969-29.492187-34.320313-31.566406 6.617188-11.308594 17.667969-19.328125 30.472656-22.105469 2.542969-.476562 4.699219-2.15625 5.785157-4.503906zm-14.953124 374.320313c-2.863282 10.429687-12.335938 17.664062-23.152344 17.679687h-319.117188c-10.738281 0-20.171875-7.132812-23.097656-17.464844l-13.601562-55.917968c4.023437.910156 8.132812 1.375 12.257812 1.382812h368c4.113281-.011718 8.210938-.476562 12.222656-1.382812zm41.289062-110.320313c-.027344 22.082032-17.917969 39.972656-40 40h-368c-22.082031-.027344-39.972656-17.917968-40-40v-104c0-8.835937 7.164062-16 16-16h16c4.417969 0 8-3.582031 8-8 0-8.835937 7.164062-16 16-16h80c4.417969 0 8-3.582031 8-8 0-13.253906 10.746094-24 24-24h112c13.253906 0 24 10.746094 24 24 0 4.417969 3.582031 8 8 8h32c1.496094.007813 2.988281.15625 4.457031.441406l-16.210937 35.101563c-18.464844 5.453125-33.566406 18.800781-41.246094 36.457031h-35v16h48c13.253906 0 24 10.746094 24 24 0 4.417969 3.582031 8 8 8h48c13.253906 0 24 10.746094 24 24h16c-.058594-17.191406-11.117188-32.414062-27.449219-37.785156 3.898438-16.964844.855469-34.78125-8.445312-49.496094l10.871093-23.566406c10.070313 3.058594 16.972657 12.324219 17.023438 22.847656 0 4.417969 3.582031 8 8 8 13.253906 0 24 10.746094 24 24zm0 0"/><path d="m72 223.691406c-13.253906 0-24 10.746094-24 24s10.746094 24 24 24 24-10.746094 24-24-10.746094-24-24-24zm0 32c-4.417969 0-8-3.582031-8-8 0-4.417968 3.582031-8 8-8s8 3.582032 8 8c0 4.417969-3.582031 8-8 8zm0 0"/><path d="m264 263.691406c-13.253906 0-24 10.746094-24 24s10.746094 24 24 24 24-10.746094 24-24-10.746094-24-24-24zm0 32c-4.417969 0-8-3.582031-8-8 0-4.417968 3.582031-8 8-8s8 3.582032 8 8c0 4.417969-3.582031 8-8 8zm0 0"/><path d="m184 167.691406c-13.253906 0-24 10.746094-24 24s10.746094 24 24 24 24-10.746094 24-24-10.746094-24-24-24zm0 32c-4.417969 0-8-3.582031-8-8 0-4.417968 3.582031-8 8-8s8 3.582032 8 8c0 4.417969-3.582031 8-8 8zm0 0"/><path d="m88 183.691406h16v16h-16zm0 0"/><path d="m136 239.691406h16v16h-16zm0 0"/><path d="m216 135.691406h16v16h-16zm0 0"/><path d="m184 295.691406h16v16h-16zm0 0"/><path d="m272 167.691406h16v16h-16zm0 0"/></svg>