<svg height="479pt" viewBox="0 -71 479.85846 479" width="479pt" xmlns="http://www.w3.org/2000/svg"><path d="m416 24.429688h-96.441406c-4.839844 0-9.480469 1.921874-12.902344 5.34375l-181.3125 181.3125c-3.421875 3.421874-8.0625 5.34375-12.902344 5.34375h-48.441406c-30.929688 0-56 25.070312-56 56 0 30.925781 25.070312 56 56 56h104l200-192h48c30.929688 0 56-25.074219 56-56 0-30.929688-25.070312-56-56-56zm0 0" fill="#4398d1"/><path d="m432 208.429688h-48v16h28.6875l-98.34375 98.34375 11.3125 11.3125 98.34375-98.34375v28.6875h16v-48c0-4.417969-3.582031-8-8-8zm0 0" fill="#ffa230"/><path d="m208 32.429688c0 13.253906-10.746094 24-24 24s-24-10.746094-24-24c0-13.253907 10.746094-24 24-24s24 10.746093 24 24zm0 0" fill="#e3584b"/><path d="m184 88.429688c-17.671875 0-32 14.328124-32 32v64l64-64c0-17.671876-14.328125-32-32-32zm0 0" fill="#e3584b"/><path d="m168 328.429688h48l200-192h-48zm0 0" fill="#22689c"/><path d="m416 24.429688h-14.664062l-304 304h70.664062l200-192h48c30.929688 0 56-25.074219 56-56 0-30.929688-25.070312-56-56-56zm0 0" fill="#3e8dc2"/><path d="m152 160.339844v24.089844l64-64c-.035156-5.257813-1.378906-10.425782-3.910156-15.03125-16.015625 22.273437-36.476563 40.980468-60.089844 54.941406zm0 0" fill="#d45246"/><path d="m416 16.429688h-96.441406c-6.964844-.019532-13.648438 2.75-18.558594 7.6875l-80.359375 80.359374c-7.589844-17.324218-26.273437-26.96875-44.792969-23.113281-18.515625 3.855469-31.804687 20.152344-31.847656 39.066407v60.695312l-24.304688 24.304688c-1.921874 1.921874-4.535156 3.003906-7.253906 3h-48.441406c-35.347656 0-64 28.652343-64 64 0 35.347656 28.652344 64 64 64h152c2.0625 0 4.046875-.796876 5.535156-2.222657l197.863282-189.953125c34.570312-1.894531 61.359374-30.957031 60.4375-65.566406-.921876-34.609375-29.214844-62.203125-63.835938-62.257812zm-256 104c-.011719-12.65625 9.808594-23.148438 22.441406-23.96875 12.628906-.824219 23.726563 8.304687 25.359375 20.855468l-47.800781 47.800782zm52.800781 200h-24.914062l183.3125-176h24.898437zm203.199219-192h-48c-2.0625 0-4.046875.796874-5.535156 2.222656l-197.664063 189.777344h-100.800781c-26.507812 0-48-21.492188-48-48 0-26.511719 21.492188-48 48-48h48.441406c6.964844.019531 13.648438-2.75 18.558594-7.6875l90.65625-90.65625 90.640625-90.648438c1.925781-1.929688 4.539063-3.011719 7.261719-3.007812h96.441406c26.507812 0 48 21.488281 48 48 0 26.507812-21.492188 48-48 48zm0 0"/><path d="m432 208.429688h-48v16h28.6875l-98.34375 98.34375 11.3125 11.3125 98.34375-98.34375v28.6875h16v-48c0-4.417969-3.582031-8-8-8zm0 0"/><path d="m184 64.429688c17.671875 0 32-14.328126 32-32 0-17.671876-14.328125-32-32-32s-32 14.328124-32 32c0 17.671874 14.328125 32 32 32zm0-48c8.835938 0 16 7.164062 16 16 0 8.835937-7.164062 16-16 16s-16-7.164063-16-16c0-8.835938 7.164062-16 16-16zm0 0"/></svg>