<svg height="480pt" viewBox="0 -124 480 479" width="480pt" xmlns="http://www.w3.org/2000/svg"><g fill="#22689c"><path d="m264 64.507812-16-56c-40 8-72 48-72 48l-10 12.664063h100.664062zm0 0"/><path d="m368 96.507812 16-40c-24 0-54.097656 23.199219-54.097656 23.199219l-9.902344 7.464844zm0 0"/><path d="m228.664062 199.171875c21.359376 17.023437 48.027344 25.992187 75.335938 25.335937l-16-32-7.335938-12.664062-62.664062 6.664062c3.003906 4.65625 6.585938 8.914063 10.664062 12.664063zm0 0"/><path d="m368 160.507812 8 56c-22.128906-6.902343-42.335938-18.886718-59-35l-12.335938-11.664062 62-19.335938zm0 0"/><path d="m472 200.507812v-144c-15.367188 0-30.101562 6.105469-40.96875 16.96875l-23.03125 23.03125v64l23.03125 23.03125c10.867188 10.867188 25.601562 16.96875 40.96875 16.96875zm0 0"/></g><path d="m408 96.507812h-3.335938c-25.824218-.277343-51.300781-6-74.761718-16.800781-33.710938-15.03125-83-24.535156-137.902344-24.535156-101.601562 0-184 32.535156-184 72.671875s82.398438 72.664062 184 72.664062c55.886719 0 105.9375-9.847656 139.671875-25.382812 22.152344-9.894531 46.179687-14.882812 70.441406-14.617188h5.886719zm0 0" fill="#4398d1"/><path d="m8.929688 120.507812c-.613282 2.398438-.925782 4.863282-.929688 7.335938 0 40.128906 82.398438 72.664062 184 72.664062 55.886719 0 105.9375-9.847656 139.671875-25.382812 22.152344-9.894531 46.179687-14.882812 70.441406-14.617188h5.886719v-40zm0 0" fill="#87ced9"/><path d="m80 104.507812c0 8.835938-7.164062 16-16 16s-16-7.164062-16-16c0-8.835937 7.164062-16 16-16s16 7.164063 16 16zm0 0" fill="#0a4a7a"/><path d="m96 192.507812c-1.738281-1.234374-2.910156-3.109374-3.257812-5.214843-.347657-2.101563.15625-4.253907 1.402343-5.984375l17.039063-23.855469c9.269531-12.960937 9.960937-30.1875 1.761718-43.847656l-7.800781-13.023438 13.710938-8.226562 7.808593 13.015625c11.476563 19.125 10.511719 43.234375-2.457031 61.378906l-17.007812 23.902344c-1.234375 1.738281-3.109375 2.910156-5.214844 3.257812-2.101563.351563-4.253906-.15625-5.984375-1.402344zm0 0" fill="#22689c"/><path d="m164.128906 200.597656c-11.367187-.011718-22.515625-3.121094-32.25-8.992187l8.242188-13.722657c19.207031 11.644532 44.003906 7.785157 58.765625-9.140624h-46.886719v-16h64c3.105469-.003907 5.929688 1.792968 7.25 4.601562 1.316406 2.8125.890625 6.132812-1.097656 8.515625l-10.152344 12.167969c-11.800781 14.277344-29.351562 22.550781-47.871094 22.570312zm0 0" fill="#22689c"/><path d="m152 112.507812h216v16h-216zm0 0" fill="#22689c"/><path d="m440 120.507812h32v16h-32zm0 0" fill="#0a4a7a"/><path d="m440 88.507812h32v16h-32zm0 0" fill="#0a4a7a"/><path d="m440 152.507812h32v16h-32zm0 0" fill="#0a4a7a"/><path d="m52.800781 130.109375-34.746093-25.953125c-3.628907 4.007812-6.449219 8.679688-8.300782 13.761719l33.445313 24.992187zm0 0" fill="#22689c"/><path d="m472 48.507812c-17.496094-.046874-34.285156 6.90625-46.625 19.3125l-20.6875 20.6875c-8.0625-.023437-16.113281-.660156-24.078125-1.902343l10.847656-27.121094c.988281-2.46875.6875-5.269531-.808593-7.472656-1.496094-2.199219-3.988282-3.511719-6.648438-3.503907-21.40625 0-45.96875 15.664063-55.199219 22.160157-19.171875-7.761719-39.125-13.421875-59.511719-16.886719l-13.5625-47.472656c-1.148437-4.035156-5.21875-6.496094-9.328124-5.640625-35.199219 7.03125-63.78125 36.183593-73.292969 46.890625-98.457031 3.863281-173.105469 37.75-173.105469 80.285156 0 45.234375 84.335938 80.664062 192 80.664062 11.441406 0 22.703125-.511718 33.792969-1.3125 22.53125 16.894532 50.050781 25.800782 78.207031 25.3125 2.78125.015626 5.367188-1.414062 6.835938-3.773437s1.605468-5.316406.363281-7.800781l-12.800781-25.601563c5.664062-1.539062 11.113281-3.203125 16.34375-4.992187 16.945312 15.703125 37.257812 27.320312 59.386718 33.960937 2.582032.644531 5.320313-.039062 7.296875-1.824219 1.976563-1.785156 2.9375-4.433593 2.558594-7.070312l-6.398437-44.992188c8.121093-1.203124 16.320312-1.839843 24.535156-1.90625h2.566406l20.6875 20.6875c12.339844 12.40625 29.128906 19.359376 46.625 19.3125 4.417969 0 8-3.582031 8-8v-144c0-4.417968-3.582031-8-8-8zm-100.671875 18.136719-6.6875 16.71875c-5.867187-1.488281-11.757813-3.292969-17.671875-5.414062 7.644531-4.71875 15.820312-8.511719 24.359375-11.304688zm-128.886719-48.472656 9.398438 32.921875c-18.570313-2.433594-37.273438-3.714844-56-3.832031 13.234375-12.96875 29.136718-22.894531 46.601562-29.089844zm9.460938 186.441406c10.578125-1.417969 20.714844-3.28125 30.496094-5.417969l8.296874 16.601563c-13.484374-1.429687-26.613281-5.214844-38.792968-11.183594zm79.808594-20.855469c1.074218-.472656 2.257812-.890624 3.304687-1.371093 8.601563-3.867188 17.554687-6.894531 26.738281-9.039063l4.503906 31.527344c-12.460937-5.363281-24.09375-12.472656-34.546874-21.117188zm68.289062-31.25c-24.707031-.023437-49.136719 5.203126-71.671875 15.335938-33.433594 15.402344-82.023437 24.296875-133.601563 24.601562 6.59375-3.722656 12.460938-8.601562 17.320313-14.402343l10.144531-12.167969c2.003906-2.390625 2.433594-5.726562 1.101563-8.546875-1.328125-2.820313-4.175781-4.609375-7.292969-4.585937h-64v16h46.886719c-14.761719 16.925781-39.558594 20.785156-58.765625 9.140624l-6.3125 10.503907c-7.59375-1.0625-15.066406-2.324219-22.335938-3.773438l12.742188-17.847656c12.957031-18.140625 13.917968-42.238281 2.449218-61.351563l-7.808593-13.015624-13.710938 8.222656 7.800781 13.023437c8.191407 13.652344 7.507813 30.867188-1.746093 43.824219l-16.679688 23.34375c-44.917969-11.296875-78.519531-30.03125-78.519531-52.96875.046875-1.617188.269531-3.230469.671875-4.800781l26.527344 19.867187 9.601562-12.800781-28.273437-21.199219c21.65625-24.449218 83.472656-45.738281 167.472656-45.738281 51.625 0 100.695312 8.703125 134.632812 23.863281 23.066407 10.585938 48.003907 16.503906 73.367188 17.410156zm64-64h-24v16h24v16h-24v16h24v16h-24v16h24v23.367188c-10.355469-1.65625-19.914062-6.554688-27.3125-13.992188l-20.6875-20.6875v-57.375l20.6875-20.6875c7.398438-7.433593 16.957031-12.332031 27.3125-13.992187zm0 0"/><path d="m80 104.507812c0 8.835938-7.164062 16-16 16s-16-7.164062-16-16c0-8.835937 7.164062-16 16-16s16 7.164063 16 16zm0 0"/><path d="m152 112.507812h216v16h-216zm0 0"/></svg>