<svg height="479pt" viewBox="-4 0 479 479.85085" width="479pt" xmlns="http://www.w3.org/2000/svg"><path d="m424.144531 186.675781 40.28125 37.175781-40.28125 37.175782-40.285156-37.175782zm0 0" fill="#cc3831"/><path d="m328.425781 223.851562c0 30.929688 27.199219 56 60.679688 56h42.136719c4.300781-.003906 8.34375-2.0625 10.875-5.542968 2.53125-3.480469 3.246093-7.960938 1.925781-12.054688-11.46875-34.984375-30.1875-67.152344-54.9375-94.402344-33.480469 0-60.679688 25.074219-60.679688 56zm0 0" fill="#d64740"/><path d="m328.425781 223.851562c0-30.925781 27.199219-56 60.679688-56h42.136719c4.300781.003907 8.34375 2.066407 10.875 5.546876 2.53125 3.480468 3.246093 7.960937 1.925781 12.054687-11.46875 34.980469-30.1875 67.148437-54.9375 94.398437-33.480469 0-60.679688-25.070312-60.679688-56zm0 0" fill="#e3584b"/><path d="m219.25 48.132812 37.175781-40.28125 37.175781 40.28125-37.175781 40.289063zm0 0" fill="#cc3831"/><path d="m256.425781 143.851562c30.925781 0 56-27.199218 56-60.679687v-42.136719c-.003906-4.300781-2.066406-8.34375-5.546875-10.875-3.476562-2.53125-7.957031-3.246094-12.054687-1.921875-34.980469 11.464844-67.148438 30.183594-94.398438 54.933594 0 33.480469 25.070313 60.679687 56 60.679687zm0 0" fill="#d64740"/><path d="m256.425781 143.851562c-30.929687 0-56-27.199218-56-60.679687v-42.136719c.003907-4.300781 2.066407-8.34375 5.542969-10.875 3.480469-2.53125 7.960938-3.246094 12.058594-1.921875 34.980468 11.464844 67.148437 30.183594 94.398437 54.933594 0 33.480469-25.074219 60.679687-56 60.679687zm0 0" fill="#e3584b"/><path d="m360.425781 63.851562h56v56h-56zm0 0" fill="#cc3831"/><path d="m318.472656 158.378906c23.292969 23.296875 61.0625 23.296875 84.351563 0l28.3125-28.308594c3.28125-3.261718 4.820312-7.882812 4.148437-12.457031-.671875-4.578125-3.472656-8.5625-7.546875-10.746093l-33.503906-18.039063c-11.726563-6.308594-24.605469-10.179687-37.863281-11.375-19.933594-1.828125-38.871094 9.035156-47.359375 27.160156s-4.703125 39.628907 9.460937 53.765625zm0 0" fill="#d64740"/><path d="m321.898438 158.378906c-23.296876-23.289062-23.296876-61.058594 0-84.351562l28.3125-28.3125c3.261718-3.273438 7.882812-4.808594 12.453124-4.140625 4.574219.671875 8.5625 3.46875 10.746094 7.542969l18.039063 33.503906c6.308593 11.722656 10.175781 24.605468 11.375 37.863281 1.828125 19.933594-9.03125 38.871094-27.160157 47.359375-18.125 8.488281-39.628906 4.703125-53.765624-9.464844zm0 0" fill="#e3584b"/><path d="m112.425781 375.851562 40.976563-344c135.945312 57.472657 242.121094 168.535157 293.421875 306.929688l1.601562 4.3125zm0 0" fill="#cccfd1"/><path d="m153.402344 31.851562-40.976563 344s104-32 136-136c40.375-131.199218-95.023437-208-95.023437-208zm0 0" fill="#d6d9db"/><path d="m8.425781 367.851562 104 104v-104zm0 0" fill="#d6d9db"/><path d="m196.960938 403.050781c-2.9375-10.625-10.976563-19.085937-21.441407-22.566406l-56.503906-18.871094-14.09375-51.671875c-3.699219-13.5625-16-22.980468-30.058594-23.019531-14.054687-.035156-26.402343 9.320313-30.175781 22.859375-3.769531 13.542969 1.964844 27.933594 14.019531 35.167969l42.582031 25.550781c-11.542968 17.015625-46.832031 61.351562-100.863281 61.351562v16c44.601563 0 77.296875-25.246093 97.015625-46.671874-8 26.160156-24.550781 58.554687-58.007812 62.738281l1.984375 15.871093c49.144531-6.144531 68.070312-56.914062 75.085937-87.753906l19.464844 35.6875c5.210938 9.554688 14.78125 15.941406 25.601562 17.082032 1.148438.121093 2.304688.183593 3.464844.183593 9.667969.011719 18.859375-4.203125 25.160156-11.535156 7.179688-8.371094 9.71875-19.773437 6.765626-30.402344zm-130.023438-71.820312c-5.875-3.535157-8.667969-10.554688-6.828125-17.15625 1.839844-6.601563 7.863281-11.164063 14.71875-11.148438 6.855469.019531 12.855469 4.609375 14.660156 11.222657l9.976563 36.601562zm111.089844 91.820312c-3.667969 4.261719-9.1875 6.453125-14.777344 5.863281-5.585938-.589843-10.527344-3.882812-13.222656-8.8125l-20.800782-38.191406 41.269532 13.757813c5.398437 1.820312 9.535156 6.199219 11.046875 11.691406 1.507812 5.488281.191406 11.371094-3.515625 15.691406zm0 0" fill="#e3584b"/><path d="m74.351562 445.09375c-8.941406 10.335938-21.367187 17.035156-34.917968 18.824219l1.984375 15.871093c17.117187-2.121093 32.878906-10.398437 44.34375-23.289062l21.007812 21.007812c2.289063 2.289063 5.726563 2.972657 8.71875 1.734376 2.988281-1.238282 4.9375-4.15625 4.9375-7.390626v-72.621093l15.542969 28.492187c5.210938 9.554688 14.78125 15.941406 25.601562 17.082032 1.148438.121093 2.304688.183593 3.464844.183593 9.667969.011719 18.859375-4.203125 25.160156-11.535156 7.171876-8.371094 9.707032-19.765625 6.765626-30.390625-2.941407-10.625-10.980469-19.089844-21.441407-22.578125l-6.292969-2.105469 280-27.292968c2.46875-.242188 4.683594-1.617188 6-3.722657 1.316407-2.101562 1.582032-4.695312.71875-7.023437l-1.601562-4.304688c-6.125-16.535156-13.109375-32.671875-20.796875-48.421875 6.429687-.640625 12.21875-4.164062 15.738281-9.585937 3.515625-5.421875 4.378906-12.148438 2.339844-18.277344-1.078125-3.320312-2.441406-6.570312-3.65625-9.859375l21.847656-20.15625c1.644532-1.515625 2.578125-3.648437 2.578125-5.882813 0-2.234374-.933593-4.363281-2.578125-5.878906l-21.832031-20.144531c1.21875-3.289063 2.554687-6.535156 3.640625-9.863281 2.125-6.53125.996094-13.683594-3.035156-19.246094-4.03125-5.558594-10.480469-8.855469-17.347656-8.867188h-18.570313l24.121094-24.128906c5.050781-5.046875 7.414062-12.1875 6.375-19.253906-1.035157-7.0625-5.351563-13.222656-11.636719-16.609375l-7.449219-4h.34375v-32.007813c0-4.417968-3.582031-8-8-8h-30.34375l-5.65625-10.527343c-3.386719-6.285157-9.546875-10.601563-16.609375-11.640625-7.066406-1.035156-14.207031 1.328125-19.253906 6.378906l-24.136719 24.125v-23.152344c-.011719-6.863281-3.308593-13.3125-8.867187-17.34375-5.554688-4.03125-12.707032-5.160156-19.238282-3.039062-3.320312 1.070312-6.566406 2.398437-9.855468 3.648437l-20.160156-21.839843c-1.550782-1.574219-3.667969-2.460938-5.878907-2.460938-2.210937 0-4.328125.886719-5.878906 2.460938l-20.050781 21.695312c-3.300782-1.222656-6.605469-2.441406-9.957032-3.535156-6.539062-2.125-13.699218-.992188-19.257812 3.046875-5.5625 4.039062-8.855469 10.496093-8.855469 17.367187v.417969c-11.761719-6.03125-23.671875-11.792969-35.90625-16.96875-.085937 0-.175781 0-.261719 0-1.015624-.40625-2.105468-.589844-3.199218-.542969h-.425782c-.996093.085938-1.96875.355469-2.863281.800782-.097656.054687-.175781.125-.273437.183593-.09375.054688-.09375 0-.132813 0-.042969 0-.113281.125-.1875.175781-.949219.589844-1.769531 1.371094-2.398437 2.296876 0 .070312-.0625.140624-.113282.214843-.636718.992188-1.046874 2.117188-1.199218 3.289063l-35.4375 297.652344-5.082032-18.613282c-3.699218-13.5625-16-22.980468-30.054687-23.019531-14.058594-.035156-26.40625 9.320313-30.179687 22.859375-3.769532 13.542969 1.96875 27.933594 14.019531 35.167969l24.816406 14.902343h-75.121094c-3.234375 0-6.152343 1.949219-7.390625 4.941407-1.238281 2.988281-.554687 6.425781 1.734375 8.714843l45.800781 45.800782c-14.753906 8.125-31.300781 12.4375-48.144531 12.542968v16c21.148438-.078124 41.890625-5.8125 60.070313-16.613281zm96.105469-49.464844c7.285157 2.417969 12.070313 9.394532 11.707031 17.0625-.367187 7.667969-5.792968 14.15625-13.273437 15.871094-7.484375 1.714844-15.195313-1.757812-18.863281-8.5l-20.640625-37.808594.6875-.074218zm271.128907-181.96875 11.039062 10.191406-11.039062 10.191407c-1.519532-3.390625-3.066407-6.773438-4.71875-10.101563 1.6875-3.386718 3.183593-6.839844 4.71875-10.28125zm-5.921876 55.9375c-1.019531 1.421875-2.667968 2.265625-4.421874 2.253906h-5.785157c-2.65625-5.03125-5.3125-10.0625-8.128906-15 3.511719-5.078124 6.882813-10.230468 10.015625-15.503906 3.425781 7.609375 6.457031 15.386719 9.082031 23.304688.570313 1.671875.285157 3.519531-.761719 4.945312zm-4.421874-93.746094c1.75.003907 3.394531.839844 4.421874 2.257813 1.027344 1.414063 1.316407 3.238281.777344 4.902344-6.796875 20.664062-16.269531 40.347656-28.175781 58.554687-12.410156-20.210937-26.125-39.585937-41.054687-58.011718 8.902343-.839844 17.550781-3.457032 25.421874-7.703126zm-7.296876-61.902343c1.832032.988281 3.089844 2.785156 3.390626 4.847656.300781 2.058594-.386719 4.140625-1.855469 5.617187l-17 17.039063c2.171875-7 2.949219-14.359375 2.289062-21.65625-.480469-4.773437-1.28125-9.511719-2.398437-14.175781zm-15.519531-42.097657v15.570313l-7.914062-4.257813c-.695313-1.441406-1.292969-2.917968-2.0625-4.335937l-3.75-6.976563zm-80.871093 7.832032 28.3125-28.3125c1.472656-1.460938 3.542968-2.148438 5.597656-1.855469 2.066406.292969 3.863281 1.554687 4.847656 3.394531l18.039062 33.503906c5.816407 10.765626 9.378907 22.601563 10.472657 34.789063 1.332031 12.210937-3.269531 24.320313-12.375 32.5625-8.589844 7.863281-20.152344 11.636719-31.726563 10.351563-11.824218-13.296876-24.277344-26-37.351562-38.113282-3.265625-16.835937 2.046875-34.195312 14.183594-46.320312zm109.726562 256.457031-279.390625 27.238281c46.71875-26.703125 81.746094-69.933594 98.183594-121.175781 23.3125-75.78125-9.695313-134.398437-43.671875-171.542969 102.722656 60.636719 181.960937 154.183594 224.878906 265.480469zm-140.054688-300.289063c1.667969-.554687 3.503907-.273437 4.929688.757813s2.273438 2.683594 2.269531 4.441406v24.945313c-9.644531-7.707032-19.800781-14.746094-30.398437-21.070313 7.570312-3.417969 15.316406-6.445312 23.199218-9.074219zm-40.800781-16.199218 10.191407 11.039062c-3.390626 1.519532-6.785157 3.042969-10.113282 4.695313-3.351562-1.664063-6.71875-3.308594-10.140625-4.839844zm-48 21.382812c.003907-1.753906.847657-3.40625 2.273438-4.429687 1.425781-1.027344 3.257812-1.308594 4.925781-.753907 32.441406 10.621094 62.382812 27.734376 88 50.296876-3.886719 7.792968-6.230469 16.261718-6.894531 24.945312-27.339844-23.277344-56.921875-43.789062-88.304688-61.234375zm-48.601562 4.496094c18.851562 13.097656 35.789062 28.753906 50.320312 46.519531 36.191407 44.945313 46.496094 93.882813 30.632813 145.449219-23.671875 76.929688-89.34375 113.160156-117.535156 125.550781l-1.183594-.398437zm-75.855469 386.554688-9.832031-9.832032c8.40625-6.289062 16.207031-13.34375 23.304687-21.074218-3.191406 10.820312-7.71875 21.203124-13.472656 30.90625zm20.457031 20.453124-8.800781-8.796874c3.304688-5.035157 6.246094-10.292969 8.800781-15.746094zm-37.488281-121.308593c-5.875-3.535157-8.667969-10.554688-6.828125-17.15625 1.839844-6.601563 7.863281-11.164063 14.71875-11.148438 6.855469.019531 12.855469 4.609375 14.660156 11.222657l9.976563 36.601562zm-39.199219 44.621093h69.726563c-9.785156 13.324219-21.550782 25.074219-34.886719 34.839844zm0 0"/></svg>