<svg height="480pt" viewBox="-40 0 480 480" width="480pt" xmlns="http://www.w3.org/2000/svg"><path d="m392 424h-384l32-72v-240l-32-56h384l-32 56v240zm0 0" fill="#87ced9"/><g fill="#5eb3d1"><path d="m8 8h384v48h-384zm0 0"/><path d="m8 8h384v48h-384zm0 0"/><path d="m8 424h384v48h-384zm0 0"/></g><path d="m360 352v-240l32-56h-56.902344c-55.289062 182.726562-176 300.6875-268.839844 368h325.742188zm0 0" fill="#71c4d1"/><path d="m282.144531 244.9375-33.105469 14.132812-33.039062-19.070312 33.039062-19.070312 33.105469 14.132812 6.28125-14.710938-22.074219-9.421874 20.792969-12-8-13.859376-20.792969 12 2.871094-23.824218-15.886718-1.910156-4.304688 35.734374-33.03125 19.074219v-38.144531l28.800781-21.601562-9.601562-12.796876-19.199219 14.398438v-24h-16v24l-19.199219-14.398438-9.601562 12.796876 28.800781 21.601562v38.144531l-33.03125-19.074219-4.304688-35.734374-15.886718 1.910156 2.871094 23.824218-20.792969-12-8 13.859376 20.792969 12-22.074219 9.421874 6.28125 14.710938 33.105469-14.132812 33.039062 19.070312-33.039062 19.070312-33.105469-14.132812-6.28125 14.710938 22.074219 9.421874-20.792969 12 8 13.859376 20.792969-12-2.871094 23.824218 15.886718 1.910156 4.304688-35.734374 33.03125-19.074219v38.144531l-28.800781 21.601562 9.601562 12.796876 19.199219-14.398438v24h16v-24l19.199219 14.398438 9.601562-12.796876-28.800781-21.601562v-38.144531l33.03125 19.074219 4.304688 35.734374 15.886718-1.910156-2.871094-23.824218 20.792969 12 8-13.859376-20.792969-12 22.074219-9.421874zm0 0" fill="#d8eff2"/><path d="m392 8h-48.472656c-3.855469 16.550781-8.078125 32.511719-12.574219 48h61.046875zm0 0" fill="#4ba5c4"/><path d="m8 472h384v-48h-306.945312c-24.339844 17.671875-50.117188 33.28125-77.054688 46.664062zm0 0" fill="#4ba5c4"/><path d="m.6875 420.753906v.085938c0 .070312 0 .152344-.070312.222656-.324219.835938-.503907 1.722656-.5273442 2.617188 0 .113281-.0664063.207031-.0664063.320312v48c0 4.417969 3.5820315 8 8.0000005 8h383.976562c4.417969 0 8-3.582031 8-8v-48c0-.113281-.054688-.207031-.0625-.3125-.027344-.894531-.203125-1.78125-.53125-2.617188 0-.078124-.039062-.160156-.070312-.230468v-.085938l-31.335938-70.449218v-236.175782l30.945312-54.128906c.101563-.175781.144532-.375.230469-.558594.089844-.183594.183594-.441406.273438-.671875.339843-.867187.527343-1.789062.550781-2.722656v-48.046875c0-4.417969-3.582031-8-8-8h-384c-4.417969 0-8 3.582031-8 8v48.046875c.0234375.921875.210938 1.832031.542969 2.6875.089843.234375.167969.449219.273437.671875.105469.226562.128906.386719.230469.5625l30.953125 54.160156v236.175782zm383.3125 43.246094h-368v-32h368zm-368-448h368v32h-368zm30.945312 92-25.152343-44h356.414062l-25.152343 44c-.695313 1.21875-1.058594 2.597656-1.054688 4v240c0 1.117188.234375 2.226562.6875 3.246094l27 60.753906h-359.375l27-60.753906c.453125-1.019532.6875-2.128906.6875-3.246094v-240c.003906-1.402344-.359375-2.78125-1.054688-4zm0 0"/><path d="m117.855469 244.9375-6.28125 14.710938 22.074219 9.421874-20.792969 12 8 13.859376 20.792969-12-2.871094 23.824218 15.886718 1.910156 4.304688-35.734374 33.03125-19.074219v38.144531l-28.800781 21.601562 9.601562 12.796876 19.199219-14.398438v24h16v-24l19.199219 14.398438 9.601562-12.796876-28.800781-21.601562v-38.144531l33.03125 19.074219 4.304688 35.734374 15.886718-1.910156-2.871094-23.824218 20.792969 12 8-13.859376-20.792969-12 22.074219-9.421874-6.28125-14.710938-33.105469 14.132812-33.039062-19.070312 33.039062-19.070312 33.105469 14.132812 6.28125-14.710938-22.074219-9.421874 20.792969-12-8-13.859376-20.792969 12 2.871094-23.824218-15.886718-1.910156-4.304688 35.734374-33.03125 19.074219v-38.144531l28.800781-21.601562-9.601562-12.796876-19.199219 14.398438v-24h-16v24l-19.199219-14.398438-9.601562 12.796876 28.800781 21.601562v38.144531l-33.03125-19.074219-4.304688-35.734374-15.886718 1.910156 2.871094 23.824218-20.792969-12-8 13.859376 20.792969 12-22.074219 9.421874 6.28125 14.710938 33.105469-14.132812 33.039062 19.070312-33.039062 19.070312zm0 0"/></svg>