<svg height="481pt" viewBox="-12 0 481 481.392" width="481pt" xmlns="http://www.w3.org/2000/svg"><path d="m240.195312 8c-75.109374 0-136 60.890625-136 136v97.207031c0 51.949219 10.902344 103.320313 32 150.792969h216l4.945313-14.839844c12.621094-37.855468 19.054687-77.503906 19.054687-117.40625v-115.753906c0-75.109375-60.886718-136-136-136zm0 0" fill="#ffa217"/><path d="m409.613281 400.28125-95.6875-19.136719c-14.960937-2.992187-25.726562-16.121093-25.730469-31.375v-53.769531h-96v53.769531c0 15.253907-10.769531 28.382813-25.726562 31.375l-95.6875 19.136719c-22.4375 4.488281-38.585938 24.1875-38.585938 47.070312v32.648438h416v-32.648438c.003907-22.882812-16.144531-42.582031-38.582031-47.070312zm0 0" fill="#f8cab9"/><path d="m241.621094 344c16.371094-.035156 32.441406-4.410156 46.574218-12.679688v-35.320312h-96v34.953125c14.574219 8.496094 31.132813 12.996094 48 13.046875zm0 0" fill="#f6baa4"/><path d="m349.242188 144h-13.046876v56s4.664063-.167969 7.664063-.496094 11.921875-2.398437 11.921875-2.398437c13.214844-3.296875 21.894531-15.929688 20.230469-29.445313-1.664063-13.515625-13.148438-23.667968-26.769531-23.660156zm0 0" fill="#f6baa4"/><path d="m344.195312 144-5.773437 81.167969c-1.429687 20.097656-8.617187 39.355469-20.707031 55.472656l-1.375 1.832031c-17.589844 23.597656-45.289063 37.507813-74.71875 37.527344h-1.425782c-30.214843 0-58.667968-14.226562-76.800781-38.398438-12.53125-16.714843-19.988281-36.683593-21.480469-57.523437l-5.71875-80.078125 32-72c40.710938 45.796875 99.0625 72 160.335938 72zm0 0" fill="#f8cab9"/><path d="m200.195312 172c0 11.046875-8.953124 20-20 20-11.046874 0-20-8.953125-20-20s8.953126-20 20-20c11.046876 0 20 8.953125 20 20zm0 0" fill="#8f4b08"/><path d="m304.195312 172c0 11.046875-8.953124 20-20 20-11.046874 0-20-8.953125-20-20s8.953126-20 20-20c11.046876 0 20 8.953125 20 20zm0 0" fill="#8f4b08"/><path d="m229.667969 231.59375-24-8c-2.632813-.878906-4.621094-3.054688-5.257813-5.753906-.636718-2.699219.167969-5.535156 2.128906-7.496094l24-24 11.3125 11.3125-14.847656 14.847656 11.71875 3.902344zm0 0" fill="#f5ad93"/><path d="m225.5625 264h-9.367188v-16h9.367188c12.375.035156 24.25-4.882812 32.976562-13.65625l11.3125 11.3125c-11.71875 11.785156-27.667968 18.394531-44.289062 18.34375zm0 0" fill="#f5ad93"/><path d="m94.476562 219.359375c7.90625 3.941406 11.125 13.550781 7.179688 21.457031l-7.136719 14.320313c-3.941406 7.910156-13.546875 11.125-21.457031 7.183593-7.910156-3.941406-11.125-13.550781-7.183594-21.457031l7.140625-14.320312c3.941407-7.910157 13.546875-11.125 21.457031-7.183594zm0 0" fill="#f6baa4"/><path d="m128.195312 280h-88c-8.835937 0-16-7.164062-16-16s7.164063-16 16-16h88zm0 0" fill="#8f4b08"/><path d="m184.195312 232-56 16v32l56 24zm0 0" fill="#d68033"/><path d="m8.195312 480v-212.800781c0-10.601563 8.597657-19.199219 19.199219-19.199219h36.800781c8.835938 0 16 7.164062 16 16v56c0 13.253906-10.746093 24-24 24l24 136" fill="#fad6c9"/><path d="m200.195312 172c0 11.046875-8.953124 20-20 20-11.046874 0-20-8.953125-20-20s8.953126-20 20-20c11.046876 0 20 8.953125 20 20zm0 0"/><path d="m304.195312 172c0 11.046875-8.953124 20-20 20-11.046874 0-20-8.953125-20-20s8.953126-20 20-20c11.046876 0 20 8.953125 20 20zm0 0"/><path d="m234.722656 216.40625-11.71875-3.902344 14.847656-14.847656-11.3125-11.3125-24 24c-1.960937 1.960938-2.765624 4.796875-2.128906 7.496094.636719 2.699218 2.625 4.875 5.257813 5.753906l24 8zm0 0"/><path d="m225.5625 248h-9.367188v16h9.367188c16.621094.050781 32.570312-6.558594 44.289062-18.34375l-11.3125-11.3125c-8.726562 8.773438-20.601562 13.691406-32.976562 13.65625zm0 0"/><path d="m16.195312 267.199219c0-6.183594 5.015626-11.199219 11.199219-11.199219h36.800781c4.417969 0 8 3.582031 8 8v56c0 8.835938-7.164062 16-16 16-2.363281 0-4.609374 1.046875-6.128906 2.859375-1.523437 1.8125-2.160156 4.203125-1.75 6.53125l24 136 15.757813-2.78125-22.582031-128c13.46875-4.113281 22.675781-16.527344 22.703124-30.609375v-32h10.96875c3.964844 32.113281 12.03125 63.585938 24 93.648438l-30.320312 6.0625 3.144531 15.6875 72.0625-14.398438c18.675781-3.78125 32.109375-20.179688 32.144531-39.230469v-29.769531c12.671876 5.289062 26.269532 8.007812 40 8h1.464844c13.238282-.066406 26.335938-2.75 38.535156-7.894531v29.664062c.050782 19.042969 13.488282 35.421875 32.152344 39.199219l95.6875 19.160156c18.667969 3.773438 32.109375 20.152344 32.160156 39.199219v32.671875h16v-32.648438c-.058593-26.671874-18.871093-49.621093-45.015624-54.910156l-47.527344-9.503906 1.078125-3.25c12.902343-38.667969 19.476562-79.167969 19.464843-119.933594v-115.753906c0-79.527344-64.46875-144-144-144-79.527343 0-144 64.472656-144 144v67.488281c-11.558593-4.730469-24.808593.285157-30.335937 11.488281l-7.136719 14.3125c-.359375.882813-.667968 1.789063-.925781 2.710938h-30.402344c-15.019531 0-27.199219 12.179688-27.199219 27.199219v212.800781h16zm168 44.800781v37.769531c-.027343 11.429688-8.089843 21.265625-19.296874 23.535157l-25.734376 5.144531c-11.828124-28.992188-19.855468-59.394531-23.878906-90.449219h11.3125l54.488282 23.351562c.980468.421876 2.039062.644532 3.109374.648438.175782 0 .351563-.0625.527344-.078125l.113282.078125zm-48-37.273438v-20.695312l40-11.421875v49.253906zm105.457032 37.273438h-1.457032c-17.054687.007812-33.738281-4.96875-48-14.320312v-65.679688c0-2.511719-1.179687-4.875-3.183593-6.386719-2.003907-1.507812-4.601563-1.992187-7.015625-1.300781l-30.921875 8.800781c-.542969-3.203125-.949219-6.402343-1.183594-9.601562l-5.597656-78.085938 26.296875-59.203125c41.789062 42.078125 98.636718 65.75 157.941406 65.777344h7.074219l-5.167969 72.601562c-1.316406 18.546876-7.953125 36.324219-19.113281 51.199219l-1.382813 1.839844c-16.007812 21.65625-41.359375 34.410156-68.289062 34.359375zm126.542968-52.246094c.011719 39.046875-6.285156 77.839844-18.648437 114.878906l-1.710937 5.136719-32.34375-6.464843c-11.203126-2.269532-19.269532-12.105469-19.296876-23.535157v-37.769531h-.261718c10.347656-6.558594 19.425781-14.933594 26.796875-24.71875l1.386719-1.832031c13.015624-17.347657 20.75-38.082031 22.277343-59.714844l1.304688-18.398437 10.015625-2.503907c3.71875-.921875 7.257812-2.449219 10.480468-4.519531zm-14.398437-70.402344-4.9375 1.234376 2.730469-38.339844c9.035156 1.132812 15.980468 8.546875 16.519531 17.636718.542969 9.089844-5.476563 17.273438-14.3125 19.46875zm-241.601563-45.351562c.042969-70.167969 56.589844-127.210938 126.753907-127.871094 70.164062-.65625 127.769531 55.316406 129.125 125.472656-5.605469-3.644531-12.144531-5.589843-18.832031-5.601562h-20.710938c-58.984375-.019531-115.152344-25.242188-154.351562-69.320312-1.808594-2.035157-4.523438-3.011719-7.214844-2.59375-2.6875.421874-4.980469 2.179687-6.082032 4.667968l-32 72c-.527343 1.199219-.757812 2.507813-.671874 3.8125l5.722656 80.089844c.335937 4.324219.917968 8.628906 1.734375 12.886719l-8.59375 2.457031h-14.878907zm8 112v16h-32v-8c-.027343-2.730469-.523437-5.4375-1.472656-8zm-40-25.894531c1.972657-3.957031 6.777344-5.5625 10.734376-3.589844 3.953124 1.972656 5.558593 6.777344 3.585937 10.730469l-1.390625 2.753906h-17.882812zm0 0"/></svg>