<svg height="480pt" viewBox="0 0 480 480.00165" width="480pt" xmlns="http://www.w3.org/2000/svg"><path d="m31.914062 208h416c13.253907 0 24 10.746094 24 24 0 13.257812-10.746093 24-24 24h-416c-13.253906 0-24-10.742188-24-24 0-13.253906 10.746094-24 24-24zm0 0" fill="#f06659"/><path d="m388.308594 472h-296.800782c-15.863281.003906-29.332031-11.617188-31.65625-27.308594l-27.9375-188.691406h416l-27.953124 188.691406c-2.320313 15.691406-15.792969 27.3125-31.652344 27.308594zm0 0" fill="#e3584b"/><path d="m388.714844 256c-59.199219 99.816406-150.574219 170.59375-226.089844 216h225.683594c15.859375.003906 29.332031-11.617188 31.652344-27.308594l27.953124-188.691406zm0 0" fill="#d65145"/><g fill="#b8443f"><path d="m247.914062 288h16v64h-16zm0 0"/><path d="m207.914062 288h16v64h-16zm0 0"/><path d="m167.914062 288h16v64h-16zm0 0"/><path d="m367.914062 288h16v64h-16zm0 0"/><path d="m327.914062 288h16v64h-16zm0 0"/><path d="m287.914062 288h16v64h-16zm0 0"/><path d="m127.914062 288h16v64h-16zm0 0"/><path d="m87.914062 288h16v64h-16zm0 0"/><path d="m247.914062 376h16v64h-16zm0 0"/><path d="m207.914062 376h16v64h-16zm0 0"/><path d="m167.914062 376h16v64h-16zm0 0"/><path d="m367.914062 376h16v64h-16zm0 0"/><path d="m327.914062 376h16v64h-16zm0 0"/><path d="m287.914062 376h16v64h-16zm0 0"/><path d="m127.914062 376h16v64h-16zm0 0"/><path d="m87.914062 376h16v64h-16zm0 0"/></g><path d="m169.898438 208h-57.984376l76.066407-183.65625c4.269531-9.988281 14.125-16.433594 24.992187-16.34375 8.753906-.230469 17.042969 3.945312 22.070313 11.117188 5.027343 7.171874 6.125 16.386718 2.917969 24.539062zm0 0" fill="#4398d1"/><path d="m309.929688 208h57.984374l-76.0625-183.65625c-4.269531-9.988281-14.128906-16.433594-24.992187-16.34375-8.757813-.230469-17.046875 3.945312-22.074219 11.117188-5.027344 7.171874-6.121094 16.386718-2.917968 24.539062zm0 0" fill="#4398d1"/><path d="m447.914062 200h-74.65625l-74.015624-178.71875c-5.472657-13.007812-18.269532-21.417969-32.382813-21.28125-10.371094-.0390625-20.234375 4.5-26.945313 12.410156-6.710937-7.910156-16.570312-12.4492185-26.941406-12.410156-14.113281-.136719-26.910156 8.273438-32.386718 21.28125l-74.015626 178.71875h-74.65625c-16.273437.046875-29.921874 12.292969-31.71875 28.46875-1.796874 16.171875 8.828126 31.117188 24.695313 34.734375l27.0625 182.65625c3.003906 19.558594 19.78125 34.035156 39.570313 34.140625h296.800781c19.796875-.09375 36.589843-14.570312 39.589843-34.140625l27.023438-182.65625c15.867188-3.617187 26.492188-18.5625 24.695312-34.734375-1.796874-16.175781-15.445312-28.421875-31.71875-28.46875zm-197.023437-175.644531c3.597656-5.289063 9.605469-8.425781 16-8.355469 7.640625-.121094 14.59375 4.386719 17.601563 11.410156l71.421874 172.589844h-40.640624l-66.015626-159.40625c-2.25-5.339844-1.632812-11.457031 1.632813-16.238281zm47.0625 175.644531h-116.078125l58.039062-140.148438zm-102.582031-172.589844c3.007812-7.023437 9.960937-11.53125 17.601562-11.410156 6.394532-.070312 12.398438 3.066406 16 8.355469 3.253906 4.789062 3.855469 10.90625 1.597656 16.238281l-66.015624 159.40625h-40.640626zm216.679687 416.101563c-1.800781 11.738281-11.867187 20.425781-23.742187 20.488281h-296.800782c-11.875-.0625-21.945312-8.75-23.746093-20.488281l-26.574219-179.511719h397.457031zm35.863281-195.511719h-416c-8.835937 0-16-7.160156-16-16 0-8.835938 7.164063-16 16-16h416c8.835938 0 16 7.164062 16 16 0 8.839844-7.164062 16-16 16zm0 0"/><path d="m247.914062 288h16v64h-16zm0 0"/><path d="m207.914062 288h16v64h-16zm0 0"/><path d="m167.914062 288h16v64h-16zm0 0"/><path d="m367.914062 288h16v64h-16zm0 0"/><path d="m327.914062 288h16v64h-16zm0 0"/><path d="m287.914062 288h16v64h-16zm0 0"/><path d="m127.914062 288h16v64h-16zm0 0"/><path d="m87.914062 288h16v64h-16zm0 0"/><path d="m247.914062 376h16v64h-16zm0 0"/><path d="m207.914062 376h16v64h-16zm0 0"/><path d="m167.914062 376h16v64h-16zm0 0"/><path d="m367.914062 376h16v64h-16zm0 0"/><path d="m327.914062 376h16v64h-16zm0 0"/><path d="m287.914062 376h16v64h-16zm0 0"/><path d="m127.914062 376h16v64h-16zm0 0"/><path d="m87.914062 376h16v64h-16zm0 0"/></svg>