<svg height="480pt" viewBox="0 0 480 480" width="480pt" xmlns="http://www.w3.org/2000/svg"><path d="m478.03125 122.742188c-1.519531-1.742188-3.71875-2.742188-6.03125-2.742188h-401.441406l-16.558594-90-15.6875 3.144531 17.734375 95.886719 15.378906 222.96875h-6.011719c-16.808593-.285156-31.140624 12.121094-33.261718 28.800781-.90625 9 2.042968 17.960938 8.109375 24.667969 6.070312 6.707031 14.691406 10.535156 23.738281 10.53125h312c4.417969 0 8-3.582031 8-8s-3.582031-8-8-8h-311.097656c-8.042969.183594-15.0625-5.414062-16.679688-13.296875-.796875-4.648437.5-9.414063 3.539063-13.019531 3.042969-3.605469 7.519531-5.683594 12.238281-5.683594h355.089844c15.980468 0 29.507812-11.792969 31.695312-27.625l29.136719-211.277344c.316406-2.292968-.371094-4.609375-1.890625-6.355468zm-302.03125 13.257812h32v96h-32zm-16 96h-32v-96h32zm144 0h-32v-96h32zm16-96h32v96h-32zm-64 96h-32v-96h32zm-48 16v104h-32v-104zm16 0h32v104h-32zm48 0h32v104h-32zm48 0h32v104h-32zm48 0h31.703125l-7.199219 104h-24.503906zm0-16v-96h39.425781l-6.625 96zm-256-96v96h-32v11.71875l-7.433594-107.71875zm-31.703125 112h31.703125v104h-24.527344zm47.703125 0h32v104h-32zm306.9375 90.183594c-1.121094 7.902344-7.871094 13.785156-15.847656 13.816406h-10.515625l7.203125-104h31.628906zm14.664062-106.183594h-32.753906l6.625-96h39.351563zm0 0" fill="#b8bbbd"/><path d="m472 120h-94l-26 26v86h-32v-54l-16 16v38h-32v-6l-22 22h6v104h-32v-78l-16 16v62h-32v-30l-16 16v14h-14l-16 16h289.089844c15.980468 0 29.507812-11.792969 31.695312-27.625l29.136719-211.277344c.316406-2.292968-.375-4.605468-1.894531-6.351562-1.515625-1.742188-3.714844-2.746094-6.027344-2.746094zm-168 232h-32v-104h32zm48 0h-32v-104h32zm40.527344 0h-24.527344v-104h31.703125zm8.273437-120h-32.800781v-96h39.425781zm34.128907 106.183594c-1.121094 7.898437-7.863282 13.78125-15.839844 13.816406h-10.515625l7.203125-104h31.628906zm14.671874-106.183594h-32.753906l6.625-96h39.351563zm0 0" fill="#aeb1b3"/><path d="m128 440c0 17.671875-14.328125 32-32 32s-32-14.328125-32-32 14.328125-32 32-32 32 14.328125 32 32zm0 0" fill="#4398d1"/><path d="m416 440c0 17.671875-14.328125 32-32 32s-32-14.328125-32-32 14.328125-32 32-32 32 14.328125 32 32zm0 0" fill="#4398d1"/><path d="m56 32c0 13.253906-10.746094 24-24 24s-24-10.746094-24-24 10.746094-24 24-24 24 10.746094 24 24zm0 0" fill="#e3584b"/><path d="m472 120h-401.441406l-13.597656-68.175781c4.535156-5.613281 7.019531-12.605469 7.039062-19.824219 0-17.671875-14.328125-32-32-32s-32 14.328125-32 32 14.328125 32 32 32c3.636719-.035156 7.238281-.699219 10.648438-1.960938l13.398437 66.992188 15.378906 222.96875h-7.425781c-17.671875 0-32 14.328125-32 32s14.328125 32 32 32h.207031c-5.292969 6.882812-8.175781 15.316406-8.207031 24 0 22.089844 17.910156 40 40 40s40-17.910156 40-40c-.03125-8.683594-2.914062-17.117188-8.207031-24h224.414062c-5.292969 6.882812-8.175781 15.316406-8.207031 24 0 22.089844 17.910156 40 40 40s40-17.910156 40-40-17.910156-40-40-40h-320c-8.835938 0-16-7.164062-16-16s7.164062-16 16-16h355.089844c15.957031-.058594 29.457031-11.820312 31.695312-27.625l29.136719-211.277344c.316406-2.292968-.375-4.605468-1.894531-6.351562-1.515625-1.742188-3.714844-2.746094-6.027344-2.746094zm-440-72c-8.835938 0-16-7.164062-16-16s7.164062-16 16-16 16 7.164062 16 16-7.164062 16-16 16zm352 368c13.253906 0 24 10.746094 24 24s-10.746094 24-24 24-24-10.746094-24-24 10.746094-24 24-24zm-288 0c13.253906 0 24 10.746094 24 24s-10.746094 24-24 24-24-10.746094-24-24 10.746094-24 24-24zm16-64h-24.527344l-7.199218-104h31.726562zm0-120h-32v11.71875l-7.433594-107.71875h39.433594zm48 120h-32v-104h32zm0-120h-32v-96h32zm48 120h-32v-104h32zm0-120h-32v-96h32zm48 120h-32v-104h32zm0-120h-32v-96h32zm48 120h-32v-104h32zm0-120h-32v-96h32zm48 120h-32v-104h32zm0-120h-32v-96h32zm40.527344 120h-24.527344v-104h31.703125zm8.273437-120h-32.800781v-96h39.425781zm34.128907 106.183594c-1.121094 7.898437-7.863282 13.78125-15.839844 13.816406h-10.515625l7.203125-104h31.628906zm14.671874-106.183594h-32.753906l6.625-96h39.351563zm0 0"/></svg>