<svg height="479pt" viewBox="0 -40 479.99071 479" width="479pt" xmlns="http://www.w3.org/2000/svg"><path d="m247.941406 128.496094c0 66.273437-53.726562 120-120 120-66.277344 0-120-53.726563-120-120 0-66.273438 53.722656-120 120-120 66.273438 0 120 53.726562 120 120zm0 0" fill="#d6d9db"/><path d="m209.242188 40.414062c8.359374 42.894532-2.921876 87.277344-30.742188 120.976563-27.816406 33.703125-69.261719 53.183594-112.960938 53.105469-7.773437-.054688-15.53125-.722656-23.199218-2 30.457031 31.28125 75.507812 43.535156 117.613281 31.996094 42.105469-11.542969 74.609375-45.058594 84.863281-87.496094 10.25-42.4375-3.375-87.09375-35.574218-116.582032zm0 0" fill="#c7cacc"/><path d="m200.46875 56.191406 6.125-18.183594c-4.242188-3.699218-8.738281-7.097656-13.453125-10.167968l-6.960937 20.65625h-26.238282v-35.550782c-5.253906-1.453124-10.601562-2.542968-16-3.257812v38.808594h-32v-38.808594c-5.402344.714844-10.75 1.804688-16 3.257812v35.550782h-26.242187l-6.953125-20.664063c-4.714844 3.070313-9.214844 6.472657-13.453125 10.175781l6.117187 18.183594c-19.550781 46.21875-19.550781 98.386719 0 144.609375l-6.039062 18.253907c4.25 3.703124 8.753906 7.101562 13.480468 10.167968l6.847657-20.726562h26.242187v35.550781c5.25 1.453125 10.597656 2.539063 16 3.257813v-38.808594h32v38.808594c5.398438-.71875 10.746094-1.804688 16-3.257813v-35.550781h26.238282l6.824218 20.734375c4.730469-3.0625 9.238282-6.457031 13.488282-10.160157l-6.023438-18.269531c19.550781-46.222656 19.550781-98.390625 0-144.609375zm-131.242188 8.304688h117.425782c4.203125 10.328125 7.378906 21.046875 9.480468 32h-136.386718c2.101562-10.953125 5.277344-21.671875 9.480468-32zm117.425782 128h-117.425782c-4.203124-10.328125-7.378906-21.046875-9.480468-32h136.386718c-2.101562 10.953125-5.277343 21.671875-9.480468 32zm11.773437-48h-140.972656c-1.007813-10.644532-1.007813-21.359375 0-32h140.972656c1.011719 10.640625 1.011719 21.355468 0 32zm0 0" fill="#b1b3b5"/><path d="m471.941406 128.496094c0 66.273437-53.726562 120-120 120-66.277344 0-120-53.726563-120-120 0-66.273438 53.722656-120 120-120 66.273438 0 120 53.726562 120 120zm0 0" fill="#d6d9db"/><path d="m433.242188 40.414062c9.371093 46.949219-4.9375 95.5-38.269532 129.863282-33.328125 34.363281-81.421875 50.148437-128.632812 42.21875 30.457031 31.28125 75.507812 43.535156 117.613281 31.996094 42.105469-11.542969 74.609375-45.058594 84.863281-87.496094 10.25-42.4375-3.375-87.09375-35.574218-116.582032zm0 0" fill="#c7cacc"/><g fill="#5e5e5e"><path d="m343.941406 32.496094h16v48.664062h-16zm0 0"/><path d="m387.109375 100.128906 56.667969-15.984375 4.34375 15.398438-56.667969 15.984375zm0 0"/><path d="m370.046875 161.746094 13.109375-9.160156 38.667969 55.328124-13.105469 9.164063zm0 0"/><path d="m255.96875 100.914062 3.929688-15.511718 52.664062 13.332031-3.925781 15.511719zm0 0"/><path d="m280.960938 206.242188 42.671874-54.660157 12.613282 9.84375-42.671875 54.660157zm0 0"/><path d="m256.210938 56.351562c-12.476563 16.492188-20.449219 35.949219-23.128907 56.457032l38.859375-16.3125zm0 0"/><path d="m386.957031 13.71875c-22.636719-6.914062-46.8125-6.964844-69.472656-.144531l34.457031 26.921875zm0 0"/><path d="m470.691406 112.113281c-2.746094-20.136719-10.597656-39.230469-22.808594-55.472656l-15.941406 39.855469zm0 0"/><path d="m400.738281 238.09375c18.40625-8.234375 34.445313-20.964844 46.640625-37.023438l-39.4375-.574218zm0 0"/><path d="m257.125 201.863281c12.34375 15.972657 28.503906 28.582031 47 36.671875l-8.183594-38.039062zm0 0"/><path d="m303.941406 104.496094 16 64h64l16-64-48-32zm0 0"/></g><path d="m383.941406 232.496094c0 79.527344-64.472656 144-144 144-79.53125 0-144-64.472656-144-144 0-79.53125 64.46875-144 144-144 79.527344 0 144 64.46875 144 144zm0 0" fill="#ff7230"/><path d="m383.746094 225.128906c-2.113282-41.484375-22.09375-80.015625-54.78125-105.640625 10.253906 52.917969-2.953125 107.683594-36.195313 150.113281-33.246093 42.429688-83.257812 68.355469-137.09375 71.0625-3.488281.175782-6.945312.238282-10.398437.222657 43.511718 38.070312 105.582031 46.398437 157.59375 21.152343 52.011718-25.25 83.863281-79.171874 80.867187-136.910156zm0 0" fill="#fa6823"/><path d="m383.746094 225.128906c0-.21875-.046875-.417968-.0625-.632812h-104.0625c1.648437-32.957032 16.203125-63.9375 40.511718-86.25l13.152344-11.796875c.648438-.613281 1.191406-1.335938 1.597656-2.128907-3.953124-3.445312-8.089843-6.671874-12.390624-9.664062l-13.03125 11.6875c-27.683594 25.351562-44.167969 60.652344-45.839844 98.152344h-15.679688v-135.761719c-5.121094-.289063-10.25-.304687-15.371094-.046875-.214843 0-.414062.046875-.628906.0625v135.746094h-16.410156c-1.667969-37.496094-18.148438-72.796875-45.824219-98.152344l-12.710937-11.410156c-4.316406 3.03125-8.460938 6.292968-12.417969 9.777344.347656.636718.78125 1.222656 1.289063 1.738281l13.152343 11.796875c24.308594 22.3125 38.863281 53.292968 40.511719 86.25h-103.351562c-.289063 5.117187-.304688 10.246094-.046876 15.367187 0 .214844.046876.417969.0625.632813h103.335938c-1.648438 32.953125-16.203125 63.933594-40.511719 86.246094l-13.152343 11.800781c-.515626.519531-.957032 1.109375-1.304688 1.753906 3.960938 3.492187 8.105469 6.761719 12.425781 9.796875l12.71875-11.414062c27.683594-25.363282 44.164063-60.675782 45.824219-98.183594h16.410156v135.757812c5.117188.289063 10.246094.304688 15.367188.050782.214844 0 .414062-.050782.632812-.066407v-135.742187h15.679688c1.667968 37.496094 18.148437 72.796875 45.824218 98.152344l13.023438 11.6875c4.300781-3 8.433594-6.234376 12.382812-9.6875-.410156-.789063-.949218-1.5-1.601562-2.105469l-13.148438-11.800781c-24.296874-22.316407-38.839843-53.296876-40.480468-86.246094h104.078125c.289062-5.117188.304687-10.25.046875-15.367188zm0 0" fill="#8f4b08"/><path d="m447.941406 336.496094c0 30.925781-25.074218 56-56 56-30.929687 0-56-25.074219-56-56 0-30.929688 25.070313-56 56-56 30.925782 0 56 25.070312 56 56zm0 0" fill="#88b337"/><path d="m352.347656 342.152344 16.96875 16.96875c8.035156 8.316406 19.929688 11.652344 31.121094 8.722656 11.1875-2.925781 19.925781-11.664062 22.851562-22.851562 2.929688-11.1875-.40625-23.085938-8.726562-31.121094l-16.96875-16.976563c-1.5-1.5-2.339844-3.535156-2.34375-5.65625.0625-2.367187 1.085938-4.605469 2.839844-6.199219l3.097656-3.726562c-6.558594-1.109375-13.261719-1.046875-19.800781.183594-4.046875 9.058594-2.101563 19.675781 4.898437 26.710937l16.964844 16.976563c6.246094 6.246094 6.246094 16.375 0 22.625-6.328125 6.046875-16.292969 6.046875-22.621094 0l-16.96875-16.96875c-7.085937-6.933594-17.695312-8.824219-26.738281-4.761719-1.289063 6.875-1.289063 13.929687 0 20.800781l4.113281-4.726562c3.125-3.125 8.1875-3.125 11.3125 0zm0 0" fill="#d6d9db"/><path d="m66.921875 241.039062 7.640625-14.054687c-3.199219-1.730469-6.191406-3.632813-9.152344-5.601563l4.289063-12.886718h7.578125v-16h-8.050782c-4.203124-10.328125-7.378906-21.046875-9.480468-32h28.195312v-16h-30.488281c-1.007813-10.644532-1.007813-21.359375 0-32h70.488281v-16h-68.195312c2.101562-10.953125 5.277344-21.671875 9.480468-32h117.433594c1.421875 3.496094 2.742188 7.0625 3.933594 10.664062l15.203125-5.046875c-1.601563-4.707031-3.433594-9.289062-5.34375-13.816406l3.398437-10.195313c7.515626 6.949219 14.058594 14.882813 19.449219 23.585938l13.597657-8.40625c-28.25-45.738281-82.066407-68.945312-134.71875-58.105469-52.648438 10.84375-92.917969 53.429688-100.796876 106.605469-7.878906 53.175781 18.304688 105.609375 65.550782 131.257812zm93.019531-219.886718c10.859375 3.207031 21.164063 8.0625 30.550782 14.398437l-4.3125 12.945313h-26.238282zm-48-3.378906c5.292969-.808594 10.640625-1.238282 16-1.277344 5.351563.007812 10.699219.398437 16 1.160156v30.839844h-32zm-16 3.441406v27.28125h-26.242187l-4.289063-12.871094c9.386719-6.328125 19.679688-11.1875 30.53125-14.410156zm-43.824218 25.089844 3.292968 9.886718c-19.558594 46.21875-19.558594 98.390625 0 144.609375l-3.34375 10.023438c-23.03125-21.15625-36.136718-51-36.125-82.269531.007813-31.273438 13.128906-61.109376 36.175782-82.25zm0 0"/><path d="m351.941406.496094c-41.898437.03125-81.140625 20.53125-105.097656 54.902344l13.097656 9.152343c13.550782-19.351562 32.871094-33.933593 55.199219-41.65625l28.800781 21.601563v23.71875l-24.136718 16.089844 8.878906 13.3125 23.257812-15.523438 38.871094 25.914062-10.242188 40.960938 15.519532 3.878906 10.402344-41.769531 24.839843-6.207031 32 12.800781c.335938 3.550781.542969 7.152344.542969 10.800781.019531 22.882813-6.980469 45.21875-20.054688 64h-35.878906v16h22.398438c-7.609375 7.46875-16.246094 13.8125-25.648438 18.847656l7.542969 14.109376c51.832031-27.644532 78.1875-87.023438 63.925781-144.007813-14.257812-56.984375-65.476562-96.949219-124.21875-96.925781zm-16.800781 17.414062c11.121094-1.878906 22.476563-1.878906 33.597656 0l-16.796875 12.585938zm90.871094 71.816406-24.59375 6.152344-41.476563-27.664062v-23.71875l28.796875-21.601563-.0625-.085937c19.621094 6.832031 36.960938 18.972656 50.097657 35.070312zm33.855469 9.328126-17.527344-7.015626 7.273437-18.183593c4.441407 7.949219 7.890625 16.410156 10.269531 25.199219zm0 0"/><path d="m239.941406 80.496094c-64.503906.019531-121.96875 40.746094-143.355468 101.597656-21.390626 60.851562-2.042969 128.574219 48.261718 168.945312 50.304688 40.371094 120.609375 44.597657 175.386719 10.542969l-8.460937-13.597656c-19.25 11.980469-41.199219 18.9375-63.832032 20.230469v-127.71875h15.679688c1.667968 37.496094 18.148437 72.796875 45.824218 98.152344l10.6875-11.90625c-24.308593-22.3125-38.863281-53.292969-40.511718-86.246094h95.957031c-.273437 5.5625-.890625 11.105468-1.847656 16.589844l15.730469 2.875c8.109374-44.375-3.890626-90.0625-32.765626-124.71875-28.878906-34.660157-71.644531-54.714844-116.753906-54.746094zm-89.601562 49.960937 8.6875 7.789063c24.304687 22.316406 38.855468 53.296875 40.503906 86.25h-95.199219c2.121094-36.246094 18.695313-70.121094 46.007813-94.039063zm0 204.078125c-27.308594-23.921875-43.875-57.796875-45.992188-94.039062h95.199219c-1.648437 32.953125-16.203125 63.933594-40.511719 86.246094zm81.601562 33.550782c-24.671875-1.386719-48.484375-9.515626-68.859375-23.496094l6.625-5.941406c27.675781-25.355469 44.15625-60.65625 45.824219-98.152344h16.410156zm0-143.589844h-16.410156c-1.667969-37.496094-18.148438-72.796875-45.824219-98.152344l-6.625-5.945312c20.375-13.980469 44.1875-22.105469 68.859375-23.496094zm31.679688 0h-15.679688v-127.59375c24.5 1.378906 48.164063 9.398437 68.453125 23.199218l-6.949219 6.242188c-27.675781 25.355469-44.15625 60.65625-45.824218 98.152344zm16 0c1.648437-32.957032 16.203125-63.9375 40.511718-86.25l9.054688-8.152344c27.519531 23.949219 44.226562 57.980469 46.34375 94.402344zm0 0"/><path d="m346.683594 381.75c24.992187 24.992188 65.515625 24.992188 90.507812 0 24.996094-24.992188 24.996094-65.515625 0-90.507812-24.992187-24.996094-65.515625-24.996094-90.507812-.003907-12.042969 11.984375-18.8125 28.269531-18.8125 45.257813 0 16.988281 6.769531 33.273437 18.8125 45.253906zm49.046875-92.871094c18.710937 1.316406 34.917969 13.46875 41.425781 31.0625 6.503906 17.59375 2.105469 37.363282-11.25 50.539063-18.769531 18.707031-49.132812 18.707031-67.902344 0-8.027344-8.09375-12.882812-18.796875-13.679687-30.167969 2.808593-.910156 5.890625-.1875 8 1.878906l16.976562 16.96875c8.050781 8.234375 19.90625 11.507813 31.042969 8.570313s19.835938-11.636719 22.777344-22.773438-.332032-22.992187-8.566406-31.046875l-16.941407-17.015625c-2.070312-2.113281-2.796875-5.203125-1.882812-8.015625zm-16.375 1.527344c-.269531 6.644531 2.25 13.097656 6.945312 17.800781l16.96875 16.976563c6.246094 6.246094 6.246094 16.375 0 22.625-6.332031 6.046875-16.300781 6.046875-22.632812 0l-16.96875-16.96875c-4.714844-4.691406-11.171875-7.207032-17.816407-6.945313 4.199219-16.453125 17.050782-29.296875 33.503907-33.488281zm0 0"/></svg>