<svg height="480pt" viewBox="0 0 480 480" width="480pt" xmlns="http://www.w3.org/2000/svg"><path d="m56 120h384v272h-384zm0 0" fill="#b8bbbd"/><path d="m136 392h304v-272h-32zm0 0" fill="#aeb1b3"/><path d="m32 392h432v32h-432zm0 0" fill="#b8bbbd"/><path d="m96 200h304v152h-304zm0 0" fill="#87ced9"/><path d="m96 200h304v16h-304zm0 0" fill="#82c7d1"/><g fill="#e3584b"><path d="m152 40h64v80h-64zm0 0"/><path d="m88 120h-64l16-80h56zm0 0"/><path d="m472 120h-64l-8-80h48zm0 0"/><path d="m280 40h64v80h-64zm0 0"/></g><path d="m152 120h-64l8-80h56zm0 0" fill="#efefef"/><path d="m408 120h-64v-80h56zm0 0" fill="#efefef"/><path d="m216 40h64v80h-64zm0 0" fill="#efefef"/><path d="m152 120h64v16c0 17.671875-14.328125 32-32 32s-32-14.328125-32-32zm0 0" fill="#d64740"/><path d="m24 120h64v16c0 17.671875-14.328125 32-32 32s-32-14.328125-32-32zm0 0" fill="#d64740"/><path d="m408 120h64v16c0 17.671875-14.328125 32-32 32s-32-14.328125-32-32zm0 0" fill="#d64740"/><path d="m280 120h64v16c0 17.671875-14.328125 32-32 32s-32-14.328125-32-32zm0 0" fill="#d64740"/><path d="m88 120h64v16c0 17.671875-14.328125 32-32 32s-32-14.328125-32-32zm0 0" fill="#e0e0e0"/><path d="m344 120h64v16c0 17.671875-14.328125 32-32 32s-32-14.328125-32-32zm0 0" fill="#e0e0e0"/><path d="m216 120h64v16c0 17.671875-14.328125 32-32 32s-32-14.328125-32-32zm0 0" fill="#e0e0e0"/><path d="m40 8h408v32h-408zm0 0" fill="#b8bbbd"/><path d="m306.121094 221.878906c-5.222656-7.742187-11.046875-15.058594-17.425782-21.878906h-192.695312v152h237.039062c8.410157-45.226562-1.253906-91.945312-26.917968-130.121094zm0 0" fill="#82c7d1"/><path d="m312 320c0 83.949219-68.050781 152-152 152s-152-68.050781-152-152 68.050781-152 152-152 152 68.050781 152 152zm0 0" fill="#4398d1"/><path d="m272 320c0 61.855469-50.144531 112-112 112s-112-50.144531-112-112 50.144531-112 112-112 112 50.144531 112 112zm0 0" fill="#82c7d1"/><path d="m248 320c0 48.601562-39.398438 88-88 88s-88-39.398438-88-88 39.398438-88 88-88 88 39.398438 88 88zm0 0" fill="#87ced9"/><path d="m202.878906 366.152344-50.878906-42.398438v-91.753906h16v84.246094l45.121094 37.601562zm0 0" fill="#e3584b"/><path d="m72 312h16v16h-16zm0 0" fill="#22689c"/><path d="m232 312h16v16h-16zm0 0" fill="#22689c"/><path d="m152 392h16v16h-16zm0 0" fill="#22689c"/><path d="m336 344v16h64c4.417969 0 8-3.582031 8-8v-152c0-4.417969-3.582031-8-8-8h-104v16h96v136zm0 0"/><path d="m479.664062 117.703125-23.664062-78.878906v-30.824219c0-4.417969-3.582031-8-8-8h-408c-4.417969 0-8 3.582031-8 8v31.199219l-15.839844 79.199219c-.015625.238281-.015625.476562 0 .714843-.070312.292969-.125.585938-.160156.886719v16c.023438 19 13.386719 35.371094 32 39.199219v8.800781h16v-8.800781c18.613281-3.828125 31.976562-20.199219 32-39.199219v-8h48v16h16v-16h48v24h16v-24h48v8c0 10.945312-7.402344 20.503906-18 23.238281l4 15.503907c8.847656-2.292969 16.636719-7.558594 22.0625-14.910157 7.480469 10.179688 19.359375 16.183594 31.988281 16.167969 12.632813-.015625 24.496094-6.050781 31.949219-16.246094 7.460938 10.210938 19.351562 16.25 32 16.25s24.539062-6.039062 32-16.25c5.828125 7.925782 14.371094 13.421875 24 15.4375v208.808594h-112v16h136v16h-152v16h160c4.417969 0 8-3.582031 8-8v-32c0-4.417969-3.582031-8-8-8h-16v-208.800781c18.613281-3.828125 31.976562-20.199219 32-39.199219v-16c-.054688-.476562-.148438-.949219-.28125-1.40625 0-.296875-.019531-.59375-.054688-.890625zm-399.664062 18.296875c0 13.253906-10.746094 24-24 24s-24-10.746094-24-24v-8h48zm.800781-24h-47.039062l12.796875-64h40.640625zm63.199219 0h-47.160156l6.398437-64h40.761719zm64 0h-48v-64h48zm64 0h-48v-64h48zm64 24c0 13.253906-10.746094 24-24 24s-24-10.746094-24-24v-8h48zm0-24h-48v-64h48zm64 24c0 13.253906-10.746094 24-24 24s-24-10.746094-24-24v-8h48zm-48-24v-64h40.800781l6.398438 64zm48-80h-352v-16h392v16zm8.800781 16h33.207031l19.199219 64h-45.96875zm55.199219 88c0 13.253906-10.746094 24-24 24s-24-10.746094-24-24v-8h48zm0 0"/><path d="m160 160c-88.367188 0-160 71.632812-160 160s71.632812 160 160 160 160-71.632812 160-160c-.101562-88.324219-71.675781-159.898438-160-160zm0 304c-79.527344 0-144-64.472656-144-144s64.472656-144 144-144 144 64.472656 144 144c-.09375 79.492188-64.507812 143.90625-144 144zm0 0"/><path d="m160 200c-66.273438 0-120 53.726562-120 120s53.726562 120 120 120 120-53.726562 120-120c-.074219-66.242188-53.757812-119.925781-120-120zm0 224c-57.4375 0-104-46.5625-104-104s46.5625-104 104-104 104 46.5625 104 104c-.066406 57.410156-46.589844 103.933594-104 104zm0 0"/><path d="m168 232h-16v91.753906l50.878906 42.398438 10.242188-12.304688-45.121094-37.601562zm0 0"/><path d="m72 312h16v16h-16zm0 0"/><path d="m232 312h16v16h-16zm0 0"/><path d="m152 392h16v16h-16zm0 0"/></svg>