<svg height="488pt" viewBox="-9 0 488 488.21004" width="488pt" xmlns="http://www.w3.org/2000/svg"><path d="m29.15625 352h432v32h-432zm0 0" fill="#e3584b"/><g fill="#4398d1"><path d="m45.15625 136h32v168h-32zm0 0"/><path d="m205.15625 136h32v168h-32zm0 0"/><path d="m237.15625 123.816406c0-7.761718-1.878906-15.40625-5.480469-22.28125l-35.542969-67.816406c-8.285156-15.808594-24.660156-25.71875-42.511718-25.71875h-113.511719c-11.292969.003906-21.75 5.957031-27.511719 15.667969-5.765625 9.707031-5.984375 21.738281-.578125 31.652343l33.136719 60.761719v19.917969h32v-12.375c0-7.640625-1.824219-15.167969-5.320312-21.960938l-31.726563-61.664062h123.542969l41.503906 76.082031v19.917969h32zm0 0"/><path d="m77.15625 184h128v80h-128zm0 0"/><path d="m93.15625 352h-64v-32l16-16h32l16 16zm0 0"/><path d="m253.15625 352h-64v-32l16-16h32l16 16zm0 0"/></g><path d="m173.15625 264h-96v-80h16zm0 0" fill="#3e8dc2"/><path d="m437.15625 432c0 26.507812-21.492188 48-48 48-26.511719 0-48-21.492188-48-48s21.488281-48 48-48c26.507812 0 48 21.492188 48 48zm0 0" fill="#4398d1"/><path d="m405.15625 448h-48l-32-64h80zm0 0" fill="#ffc24f"/><path d="m141.15625 432c0 26.507812-21.492188 48-48 48-26.511719 0-48-21.492188-48-48s21.488281-48 48-48c26.507812 0 48 21.492188 48 48zm0 0" fill="#4398d1"/><path d="m109.15625 448h-48l-32-64h80zm0 0" fill="#ffc24f"/><path d="m53.15625 328h16v16h-16zm0 0" fill="#22689c"/><path d="m213.15625 328h16v16h-16zm0 0" fill="#22689c"/><path d="m365.15625 408h16v16h-16zm0 0" fill="#f99512"/><path d="m69.15625 408h16v16h-16zm0 0" fill="#f99512"/><path d="m405.15625 400v-16h-80l8 16zm0 0" fill="#fca62d"/><path d="m109.15625 400v-16h-80l8 16zm0 0" fill="#fca62d"/><path d="m461.15625 344h-200v-24c0-2.121094-.84375-4.15625-2.34375-5.65625l-13.65625-13.65625v-176.871094c-.007812-9.054687-2.203125-17.972656-6.398438-25.992187l-35.539062-67.816407c-9.636719-18.472656-28.761719-30.0429682-49.597656-30.007812h-113.511719c-14.117187 0-27.191406 7.441406-34.398437 19.578125-7.207032 12.140625-7.480469 27.179687-.722657 39.574219l32.167969 58.96875v182.566406l-13.65625 13.65625c-1.5 1.5-2.34375 3.535156-2.34375 5.65625v64c0 .105469.054688.191406.054688.289062.035156.839844.203124 1.671876.496093 2.464844.074219.175782.113281.359375.183594.527344.074219.167969.058594.199219.105469.292969l16.503906 33c-.847656 3.753906-1.296875 7.582031-1.34375 11.425781-.097656 25.480469 17.023438 47.8125 41.652344 54.339844 24.628906 6.53125 50.558594-4.390625 63.097656-26.574219 12.539062-22.179687 8.519531-50.03125-9.773438-67.765625h188.078126l14.289062 28.574219c-.847656 3.753906-1.296875 7.582031-1.34375 11.425781-.097656 25.480469 17.023438 47.8125 41.652344 54.339844 24.628906 6.53125 50.558594-4.390625 63.097656-26.574219 12.539062-22.179687 8.519531-50.03125-9.773438-67.765625h33.023438c4.417969 0 8-3.582031 8-8v-32c0-4.417969-3.582031-8-8-8zm-216-20.6875v20.6875h-16v-16h-16v16h-16v-20.6875l11.3125-11.3125h25.375zm-146.34375-8.96875-13.65625-13.65625v-28.6875h112v28.6875l-13.65625 13.65625c-1.5 1.5-2.34375 3.535156-2.34375 5.65625v24h-80v-24c0-2.121094-.84375-4.15625-2.34375-5.65625zm-13.65625-138.34375v-52.375c-.011719-8.90625-2.136719-17.679688-6.199219-25.601562l-25.738281-50.023438h105.6875l38.25 70.121094v57.878906zm112 16v64h-112v-64zm16 104v-152h16v152zm-194.121094-244.503906c-4.058594-7.4375-3.894531-16.460938.429688-23.746094 4.324218-7.285156 12.171875-11.75 20.644531-11.75h113.511719c14.882812-.03125 28.542968 8.234375 35.421875 21.433594l35.546875 67.804687c2.992187 5.734375 4.5625 12.109375 4.566406 18.578125v4.183594h-16v-11.917969c0-1.339843-.335938-2.660156-.976562-3.832031l-41.503907-76.082031c-1.402343-2.570313-4.097656-4.167969-7.023437-4.167969h-123.542969c-2.789063 0-5.378906 1.449219-6.832031 3.828125-1.453125 2.382813-1.5625 5.347656-.289063 7.828125l31.734375 61.671875c2.910156 5.660156 4.429688 11.933594 4.433594 18.296875v4.375h-16v-11.917969c0-1.339843-.335938-2.660156-.976562-3.832031zm50.121094 92.503906v152h-16v-152zm-32 179.3125 11.3125-11.3125h25.375l11.3125 11.3125v20.6875h-16v-16h-16v16h-16zm4.945312 68.6875h59.054688v48h-35.054688zm91.054688 40c.054688 17.195312-10.917969 32.488281-27.226562 37.9375-16.304688 5.453125-34.269532-.167969-44.566407-13.9375h47.792969c4.417969 0 8-3.582031 8-8v-47.917969c10.050781 7.535157 15.976562 19.355469 16 31.917969zm204.945312-40h59.054688v48h-35.054688zm91.054688 40c.054688 17.195312-10.917969 32.488281-27.226562 37.9375-16.304688 5.453125-34.269532-.167969-44.566407-13.9375h47.792969c4.417969 0 8-3.582031 8-8v-47.917969c10.050781 7.535157 15.976562 19.355469 16 31.917969zm24-56h-416v-16h416zm0 0"/><path d="m365.15625 408h16v16h-16zm0 0"/><path d="m69.15625 408h16v16h-16zm0 0"/></svg>