<svg height="480pt" viewBox="0 0 480 480" width="480pt" xmlns="http://www.w3.org/2000/svg"><path d="m48 119.996094h384v352h-384zm0 0" fill="#5e5e5e"/><path d="m240 7.996094-232 80v384h40v-352h384v352h40v-384zm0 0" fill="#4398d1"/><path d="m296 119.996094h136v352h40v-384l-107.078125-36.917969zm0 0" fill="#3e8dc2"/><path d="m80 391.996094h96v80h-96zm0 0" fill="#ffb254"/><path d="m80 311.996094h96v80h-96zm0 0" fill="#fca62d"/><path d="m176 391.996094h96v80h-96zm0 0" fill="#fca62d"/><path d="m176 311.996094h96v80h-96zm0 0" fill="#ffb254"/><path d="m80 231.996094h96v80h-96zm0 0" fill="#ffc24f"/><path d="m176 231.996094h96v80h-96zm0 0" fill="#fca62d"/><path d="m272 391.996094h96v80h-96zm0 0" fill="#ffb254"/><path d="m272 311.996094h96v80h-96zm0 0" fill="#ffc24f"/><g fill="#ff7230"><path d="m112 391.996094h32v32h-32zm0 0"/><path d="m112 311.996094h32v32h-32zm0 0"/><path d="m208 391.996094h32v32h-32zm0 0"/><path d="m208 311.996094h32v32h-32zm0 0"/><path d="m112 231.996094h32v32h-32zm0 0"/><path d="m208 231.996094h32v32h-32zm0 0"/><path d="m304 391.996094h32v32h-32zm0 0"/><path d="m304 311.996094h32v32h-32zm0 0"/></g><path d="m48 119.996094v64h384v-64zm0 0" fill="#b8bbbd"/><path d="m264 183.996094h168v-64h-104zm0 0" fill="#aeb1b3"/><path d="m48 143.996094h384v16h-384zm0 0" fill="#999c9e"/><path d="m474.609375 80.4375-232-80c-1.691406-.582031-3.527344-.582031-5.21875 0l-232 80c-3.222656 1.113281-5.390625 4.148438-5.390625 7.558594v384c0 4.417968 3.582031 8 8 8h40c4.417969 0 8-3.582032 8-8v-280h368v280c0 4.417968 3.582031 8 8 8h40c4.417969 0 8-3.582032 8-8v-384c0-3.410156-2.167969-6.445313-5.390625-7.558594zm-50.609375 95.558594h-368v-16h368zm0-32h-368v-16h368zm40 320h-24v-344c0-4.417969-3.582031-8-8-8h-384c-4.417969 0-8 3.582031-8 8v344h-24v-370.296875l224-77.238281 224 77.238281zm0 0"/><path d="m368 303.996094h-88v-72c0-4.417969-3.582031-8-8-8h-192c-4.417969 0-8 3.582031-8 8v240c0 4.417968 3.582031 8 8 8h288c4.417969 0 8-3.582032 8-8v-160c0-4.417969-3.582031-8-8-8zm-248-64h16v16h-16zm48 224h-80v-64h16v24c0 4.417968 3.582031 8 8 8h32c4.417969 0 8-3.582032 8-8v-24h16zm-48-48v-16h16v16zm48-32h-80v-64h16v24c0 4.417968 3.582031 8 8 8h32c4.417969 0 8-3.582032 8-8v-24h16zm-48-48v-16h16v16zm48-32h-80v-64h16v24c0 4.417968 3.582031 8 8 8h32c4.417969 0 8-3.582032 8-8v-24h16zm48-64h16v16h-16zm48 224h-80v-64h16v24c0 4.417968 3.582031 8 8 8h32c4.417969 0 8-3.582032 8-8v-24h16zm-48-48v-16h16v16zm48-32h-80v-64h16v24c0 4.417968 3.582031 8 8 8h32c4.417969 0 8-3.582032 8-8v-24h16zm-48-48v-16h16v16zm48-32h-80v-64h16v24c0 4.417968 3.582031 8 8 8h32c4.417969 0 8-3.582032 8-8v-24h16zm48 16h16v16h-16zm48 144h-80v-64h16v24c0 4.417968 3.582031 8 8 8h32c4.417969 0 8-3.582032 8-8v-24h16zm-48-48v-16h16v16zm48-32h-80v-64h16v24c0 4.417968 3.582031 8 8 8h32c4.417969 0 8-3.582032 8-8v-24h16zm0 0"/></svg>