<?xml version="1.0"?>
<svg xmlns="http://www.w3.org/2000/svg" viewBox="0 0 64 64" width="512" height="512"><g id="filled_outline" data-name="filled outline"><polygon points="61 53 42 55 22 51 3 53 3 5 22 3 42 7 61 5 61 53" style="fill:#87ced9"/><path d="M53.975,43.146,55.5,41.621l.793.793L57.707,41l-3-3-1.414,1.414.793.793-1.617,1.617a10.979,10.979,0,0,0-17.05,11.86L42,55l14.639-1.541a10.89,10.89,0,0,0-2.664-10.313Z" style="fill:#79bec9"/><polygon points="55.707 40.293 52.707 37.293 51.293 38.707 52.086 39.5 50.293 41.293 51.707 42.707 53.5 40.914 54.293 41.707 55.707 40.293" style="fill:#fdb62f"/><circle cx="44" cy="50" r="11" style="fill:#5ea9db"/><circle cx="44" cy="50" r="8" style="fill:#d1d1d1"/><circle cx="44" cy="50" r="6" style="fill:#e3e3e1"/><polygon points="42 48 49 45 46 52 39 55 42 48" style="fill:#e8594a"/><path d="M60.9,4.006,42.047,5.989,22.2,2.02a.972.972,0,0,0-.3-.014l-19,2A1,1,0,0,0,2,5V53a1,1,0,0,0,1.1.994l18.849-1.983,10.81,2.161a11.988,11.988,0,0,0,22.306.459l6.036-.637A1,1,0,0,0,62,53V5a1,1,0,0,0-.331-.743A.985.985,0,0,0,60.9,4.006ZM44,60A10,10,0,1,1,54,50,10.011,10.011,0,0,1,44,60Zm16-7.9-4.279.451a11.912,11.912,0,0,0-3.042-10.815l.821-.822.793.793,1.414-1.414-3-3-1.414,1.414.793.793-.907.907a11.955,11.955,0,0,0-19,11.61l-9.987-2a1,1,0,0,0-.3-.014L4,51.89V5.9L21.953,4.011,41.8,7.98a1.007,1.007,0,0,0,.3.014L60,6.11Z"/><rect x="21" y="29" width="2" height="19"/><rect x="21" y="6" width="2" height="19"/><rect x="41" y="33" width="2" height="3"/><rect x="41" y="10" width="2" height="19"/><rect x="5.924" y="27" width="13.153" height="2" transform="translate(-4.107 2.223) rotate(-8.736)"/><rect x="44.924" y="28" width="13.153" height="2" transform="translate(-3.807 8.158) rotate(-8.736)"/><rect x="30.5" y="22.424" width="2" height="13.153" transform="translate(-1.953 55.724) rotate(-81.254)"/><path d="M49.707,44.293a.979.979,0,0,0-.348-.215A7.986,7.986,0,0,0,38.078,55.36a.917.917,0,0,0,.573.571,7.986,7.986,0,0,0,11.271-11.29A.979.979,0,0,0,49.707,44.293ZM44,44a5.959,5.959,0,0,1,2.959.787l-5.353,2.294a1,1,0,0,0-.525.525l-2.294,5.353A5.991,5.991,0,0,1,44,44Zm3.1,2.9-1.858,4.334L40.9,53.1l1.858-4.334ZM44,56a5.959,5.959,0,0,1-2.959-.787l5.353-2.294a1,1,0,0,0,.525-.525l2.294-5.353A5.991,5.991,0,0,1,44,56Z"/></g></svg>
