<svg height="512" viewBox="0 0 512 512" width="512" xmlns="http://www.w3.org/2000/svg"><g id="Filled_outline" data-name="Filled outline"><path d="m488 256c0 128.13-105.87 232-236.46 232-108.21 0-199.44-71.31-227.54-168.65a132.027 132.027 0 0 0 186.98 42.34 129.668 129.668 0 0 0 35.57-35.6 125.85 125.85 0 0 0 14.79-30.09h-61.34l58.32-88.06c-19.37-46.88-66.21-79.94-120.94-79.94a130.842 130.842 0 0 0 -113.38 64.65c28.1-97.34 119.33-168.65 227.54-168.65 130.59 0 236.46 103.87 236.46 232z" fill="#fcac1e"/><path d="m361.039 240c-15.63 0-29.171-9.735-32.2-23.147l-15.608 3.519c4.66 20.645 24.769 35.628 47.808 35.628s43.148-14.983 47.8-35.628l-15.608-3.519c-3.021 13.412-16.562 23.147-32.192 23.147z"/><path d="m418.845 205.063 12.388-10.126c-18.151-22.203-44.061-34.937-71.087-34.937-26.574 0-52.189 12.378-70.277 33.959l12.262 10.277c15.262-18.208 35.869-28.236 58.015-28.236 22.205 0 43.6 10.593 58.699 29.063z"/><path d="m424.344 86.241c-46.167-45.296-107.537-70.241-172.807-70.241a245.132 245.132 0 0 0 -148.62 49.431c-41.622 31.331-72.378 75.722-86.6 125a8 8 0 0 0 14.6 6.241c21.767-37.425 62.563-60.672 106.465-60.672 48.723 0 92.177 27.783 111.874 71.137l-55.926 84.446a8 8 0 0 0 6.67 12.417h50.562c-5.416 13.318-15.737 25.726-24.27 34.467a23.986 23.986 0 0 0 5.023 37.445c14.247 8.353 28.776 12.588 43.185 12.588v-16c-11.526 0-23.333-3.5-35.092-10.391a7.986 7.986 0 0 1 -1.667-12.465c1.58-1.619 3.216-3.355 4.873-5.193 12.612 10.13 29.712 15.9 48.022 15.9q.945 0 1.9-.021c22.366-.485 42.17-9.212 55.074-24.093a55.713 55.713 0 0 0 13.506 5.736c-20.147 27.741-43.133 28.506-44.181 28.524l.068 8v8c1.477 0 36.116-.5 62.066-42.587a56.069 56.069 0 0 0 52.931-55.91h-16a40 40 0 0 1 -80 0h-16a55.783 55.783 0 0 0 15.107 38.2c-9.9 11.042-25.627 17.76-42.921 18.135-15.216.323-29.359-4.161-39.471-12.262 6.148-8.409 11.671-17.977 14.813-28.075h12.472v-15.998h-65.106l50.1-75.646a8 8 0 0 0 .723-7.471 136.386 136.386 0 0 0 -50.136-61.128 140.386 140.386 0 0 0 -165.611 6.827 228.611 228.611 0 0 1 201.567-118.582c61.053 0 118.444 23.319 161.6 65.662 43.118 42.302 66.863 98.538 66.863 158.338s-23.745 116.036-66.861 158.338c-43.158 42.343-100.549 65.662-161.602 65.662a228.611 228.611 0 0 1 -201.567-118.582 140.475 140.475 0 0 0 154.441 13.608l-7.651-14.052a124.5 124.5 0 0 1 -59.378 15.026c-43.9 0-84.7-23.247-106.467-60.668a8 8 0 0 0 -14.6 6.241c14.225 49.274 44.981 93.665 86.6 125a245.132 245.132 0 0 0 148.622 49.427c65.27 0 126.64-24.945 172.807-70.241 46.208-45.335 71.656-105.624 71.656-169.759s-25.448-124.424-71.656-169.759z"/><path d="m409.059 373.765-14.118-7.53a72.961 72.961 0 0 1 -40.1 34.061l2.159 7.704 2.127 7.712c1.32-.364 32.515-9.29 49.932-41.947z"/><path d="m360 96h16v16h-16z"/><path d="m400 128h16v16h-16z"/><path d="m312 424h16v16h-16z"/><path d="m448 240h16v16h-16z"/><path d="m184 64h16v16h-16z"/><path d="m280 440h16v16h-16z"/><path d="m160 416h16v16h-16z"/><path d="m240 48h16v16h-16z"/></g></svg>