<svg height="512" viewBox="0 0 512 512" width="512" xmlns="http://www.w3.org/2000/svg"><g id="Filled_outline" data-name="Filled outline"><path d="m48 24h376v464h-376z" fill="#60d1e0" transform="matrix(-1 0 0 -1 472 512)"/><path d="m424 24h32v464h-32z" fill="#57bfcc" transform="matrix(-1 0 0 -1 880 512)"/><path d="m392 24v400l-64 64h-280v-464z" fill="#a0dde5"/><path d="m392 140.69v22.62l-34.34 34.35-11.32-11.32z" fill="#8fd0d9"/><path d="m385.66 206.34 6.34-6.34v64l-80 80-40 8 8-40 94.34-94.34z" fill="#8fd0d9"/><path d="m328 488v-64h64z" fill="#b7e7eb"/><path d="m488 134.63a22.584 22.584 0 0 1 -6.63 16l-63.71 63.71-11.32 11.32-94.34 94.34-32-32 94.34-94.34 11.32-11.32 63.71-63.71a22.63 22.63 0 0 1 38.63 16z" fill="#92563a"/><path d="m280 288-8 40 40-8z" fill="#ffb531"/><path d="m448 480h-16v-232h-16v232h-56v16h96a8 8 0 0 0 8-8v-272h-16z"/><path d="m400 424v-144h-16v136h-56a8 8 0 0 0 -8 8v56h-264v-40h24v-16h-24v-56h24v-16h-24v-56h24v-16h-24v-56h24v-16h-24v-56h24v-16h-24v-40h-16v40h-24v16h24v56h-24v16h24v56h-24v16h24v56h-24v16h24v56h-24v16h24v48a8 8 0 0 0 8 8h280a8 8 0 0 0 5.657-2.343l64-64a8 8 0 0 0 2.343-5.657zm-27.314 8-36.686 36.686v-36.686z"/><path d="m80 64h-24v-32h328v64h16v-64h16v48h16v-48h16v48h16v-56a8 8 0 0 0 -8-8h-408a8 8 0 0 0 -8 8v40h-24v16h64z"/><path d="m184 96h160v16h-160z"/><path d="m184 160h144v16h-144z"/><path d="m184 224h112v16h-112z"/><path d="m136 272a24 24 0 1 0 24 24 24.027 24.027 0 0 0 -24-24zm0 32a8 8 0 1 1 8-8 8.009 8.009 0 0 1 -8 8z"/><path d="m184 288h72v16h-72z"/><path d="m136 336a24 24 0 1 0 24 24 24.027 24.027 0 0 0 -24-24zm0 32a8 8 0 1 1 8-8 8.009 8.009 0 0 1 -8 8z"/><path d="m184 352h160v16h-160z"/><path d="m136 400a24 24 0 1 0 24 24 24.027 24.027 0 0 0 -24-24zm0 32a8 8 0 1 1 8-8 8.009 8.009 0 0 1 -8 8z"/><path d="m184 416h120v16h-120z"/><path d="m162.343 66.343-16 16a24.008 24.008 0 1 0 11.314 11.314l16-16zm-34.343 37.657a7.971 7.971 0 0 1 2.346-5.654l11.308 11.308a8 8 0 0 1 -13.654-5.654z"/><path d="m162.343 130.343-16 16a24.008 24.008 0 1 0 11.314 11.314l16-16zm-34.343 37.657a7.971 7.971 0 0 1 2.346-5.654l11.308 11.308a8 8 0 0 1 -13.654-5.654z"/><path d="m162.343 194.343-16 16a24.008 24.008 0 1 0 11.314 11.314l16-16zm-34.343 37.657a7.971 7.971 0 0 1 2.346-5.654l11.308 11.308a8 8 0 0 1 -13.654-5.654z"/><path d="m465.373 104a30.43 30.43 0 0 0 -21.657 8.97l-3.716 3.716-7.03-7.03a24 24 0 0 0 -33.94 0l-52.687 52.687 11.314 11.314 52.686-52.686a8.01 8.01 0 0 1 11.314 0l7.029 7.029-154.343 154.343a7.966 7.966 0 0 0 -2.187 4.088v.027.025l-7.99 39.948a8 8 0 0 0 9.414 9.414l40-8a8.006 8.006 0 0 0 4.088-2.188l169.361-169.373a30.627 30.627 0 0 0 -21.656-52.284zm-25.373 35.314 20.686 20.686-48.686 48.686-20.686-20.686zm-155.087 164.913 10.86 10.86-13.573 2.713zm27.087 4.46-20.687-20.687 88.687-88.686 20.686 20.686zm163.716-163.717-3.716 3.716-20.686-20.686 3.715-3.716a14.628 14.628 0 0 1 20.687 20.686z"/></g></svg>